<?xml version="1.0" standalone="no"?>
<!DOCTYPE svg PUBLIC "-//W3C//DTD SVG 1.1//EN" "http://www.w3.org/Graphics/SVG/1.1/DTD/svg11.dtd" >
<svg xmlns="http://www.w3.org/2000/svg" xmlns:xlink="http://www.w3.org/1999/xlink" version="1.1">
<metadata>
Created by FontForge 20170924 at Mon Oct 23 18:34:54 2006
 By www-data
Copyright (c) 1987, 1991, 1995, 1998 Adobe Systems Incorporated.  All Rights Reserved.
</metadata>
<defs>
<font id="CooperBlack-Italic" horiz-adv-x="590" >
  <font-face 
    font-family="Cooper Black"
    font-weight="900"
    font-style="italic"
    font-stretch="normal"
    units-per-em="1000"
    panose-1="0 0 0 0 0 0 0 0 0 0"
    ascent="800"
    descent="-200"
    x-height="512"
    cap-height="709"
    bbox="-166 -250 1210 971"
    underline-thickness="50"
    underline-position="-100"
    slope="-7"
    stemh="121"
    stemv="225"
    unicode-range="U+0020-FB02"
  />
<missing-glyph horiz-adv-x="295" 
 />
    <glyph glyph-name=".notdef" horiz-adv-x="295" 
 />
    <glyph glyph-name="space" unicode=" " horiz-adv-x="295" 
 />
    <glyph glyph-name="exclam" unicode="!" horiz-adv-x="335" 
d="M179 207c61 0 112 -44 109 -111c-3 -70 -58 -117 -119 -117s-112 47 -109 117c3 67 58 111 119 111zM239 715c70 0 113 -37 112 -108c-2 -103 -56 -208 -103 -295c-10 -19 -29 -44 -54 -44c-27 0 -38 25 -46 47c-31 80 -48 184 -48 270c0 88 52 130 139 130z" />
    <glyph glyph-name="quotedbl" unicode="&#x22;" horiz-adv-x="566" 
d="M219 715c77 0 97 -71 97 -118c0 -100 -89 -268 -130 -268c-39 0 -88 145 -88 223c0 91 45 163 121 163zM492 715c77 0 97 -71 97 -118c0 -100 -89 -268 -130 -268c-39 0 -88 145 -88 223c0 91 45 163 121 163z" />
    <glyph glyph-name="numbersign" unicode="#" 
d="M406 164l-19 -145c-2 -12 -10 -19 -22 -19h-38c-10 0 -18 9 -16 19l20 145c1 11 -6 19 -15 19h-36c-10 0 -19 -9 -20 -19l-20 -145c-2 -12 -10 -19 -22 -19h-38c-10 0 -18 9 -16 19l21 145c1 11 -6 19 -15 19h-45c-11 0 -19 8 -19 19v38c0 11 8 19 19 19h56
c10 0 19 9 21 19l5 37c1 11 -6 19 -15 19h-45c-11 0 -19 8 -19 19v38c0 11 8 19 19 19h56c10 0 19 9 21 19l18 134c2 12 10 19 22 19h38c10 0 18 -9 16 -19l-20 -135c-2 -10 5 -18 15 -18h35c10 0 19 9 21 19l19 134c2 12 10 19 22 19h38c10 0 18 -9 16 -19l-19 -135
c-2 -10 5 -18 15 -18h45c11 0 19 -8 19 -19v-38c0 -11 -8 -19 -19 -19h-56c-10 0 -19 -9 -20 -19l-5 -38c-2 -10 5 -18 15 -18h45c11 0 19 -8 19 -19v-38c0 -11 -8 -19 -19 -19h-58c-10 0 -19 -9 -20 -19zM292 259h35c10 0 19 9 21 19l5 37c1 11 -6 19 -15 19h-36
c-10 0 -19 -9 -20 -19l-5 -38c-2 -10 5 -18 15 -18z" />
    <glyph glyph-name="dollar" unicode="$" 
d="M424 672l-4 -46c2 -10 12 -10 19 -11c42 -6 152 -39 152 -93c0 -34 -31 -95 -70 -95c-46 0 -76 86 -148 86c-27 0 -51 -14 -51 -44c0 -92 247 -81 247 -269c0 -104 -85 -188 -185 -207c-16 -3 -25 -3 -29 -6c-5 -2 -6 -8 -8 -23c-4 -37 -6 -42 -48 -42l-47 -1
c-44 0 -36 21 -32 58c1 11 -19 11 -26 12c-72 11 -163 46 -163 131c0 37 27 87 69 87c14 0 29 -7 37 -20c34 -53 61 -104 133 -104c30 0 64 21 64 53s-26 46 -51 58c-84 42 -185 111 -185 216c0 104 75 167 167 197c15 5 28 5 29 30c1 26 3 44 12 50s26 7 59 4s59 5 59 -21z
" />
    <glyph glyph-name="percent" unicode="%" horiz-adv-x="770" 
d="M605 615c-111 -185 -239 -383 -336 -571c-13 -25 -21 -49 -53 -49c-15 0 -59 5 -59 26c0 10 6 19 11 27l46 72c118 184 215 367 322 551c16 31 26 44 61 44c15 0 48 -2 48 -23c0 -22 -30 -60 -40 -77zM566 67c26 0 32 33 36 53c7 31 18 93 18 125c0 16 -3 37 -23 37
s-28 -22 -33 -38c-11 -38 -20 -108 -20 -146c0 -15 4 -31 22 -31zM206 428c26 0 32 33 36 53c7 31 18 93 18 125c0 16 -3 37 -23 37s-28 -22 -33 -38c-11 -38 -20 -108 -20 -146c0 -15 4 -31 22 -31zM544 -5c-83 0 -157 42 -157 134c0 132 103 225 232 225
c83 0 158 -42 158 -134c0 -132 -104 -225 -233 -225zM184 356c-83 0 -157 42 -157 134c0 132 103 225 232 225c83 0 158 -42 158 -134c0 -132 -104 -225 -233 -225z" />
    <glyph glyph-name="ampersand" unicode="&#x26;" horiz-adv-x="946" 
d="M533 377l174 74c37 15 91 41 91 87c0 15 -11 37 -28 37c-16 0 -28 -15 -46 -15c-16 0 -26 17 -26 31c0 60 82 95 132 95c89 0 138 -70 138 -153c0 -110 -84 -191 -174 -209c-12 -2 -44 -14 -44 -30c0 -14 34 -40 34 -81c0 -80 -69 -144 -137 -177
c-70 -33 -154 -50 -232 -50c-184 0 -367 104 -365 307c1 123 61 181 167 217c19 7 22 10 22 29c0 41 3 73 33 105c42 46 108 65 169 65c93 0 176 -46 176 -96c0 -26 -23 -53 -50 -53s-48 28 -85 28c-31 0 -53 -21 -53 -52c0 -52 56 -46 56 -75c0 -27 -40 -59 -76 -59
c-29 0 -49 19 -60 19c-12 0 -26 -30 -30 -39c-11 -25 -15 -51 -15 -78c0 -98 63 -192 168 -192c48 0 102 31 102 85c0 24 -17 46 -43 46c-30 0 -42 -26 -63 -26c-28 0 -40 30 -40 54c0 55 62 86 105 106z" />
    <glyph glyph-name="quoteright" unicode="&#x2019;" horiz-adv-x="306" 
d="M181 480c0 40 -76 27 -76 127c0 67 40 108 107 108c81 0 118 -60 119 -135c2 -109 -111 -265 -159 -265c-18 0 -51 30 -51 48c0 9 5 17 10 23c17 22 50 64 50 94z" />
    <glyph glyph-name="parenleft" unicode="(" horiz-adv-x="566" 
d="M578 699c-17 0 -36 8 -58 8c-83 0 -130 -149 -144 -213c-19 -85 -40 -211 -40 -297c0 -83 12 -203 119 -203c28 0 55 8 83 8c22 0 29 -19 29 -39c0 -62 -80 -59 -124 -59c-236 0 -312 178 -312 386c0 114 19 229 83 326c65 97 161 181 284 181c41 0 109 -10 109 -64
c0 -18 -10 -34 -29 -34z" />
    <glyph glyph-name="parenright" unicode=")" horiz-adv-x="566" 
d="M51 2c17 0 36 -8 58 -8c83 0 130 149 144 213c19 85 40 211 40 297c0 83 -12 203 -119 203c-28 0 -55 -8 -83 -8c-22 0 -29 19 -29 39c0 62 80 59 124 59c236 0 312 -178 312 -386c0 -114 -19 -229 -83 -326c-65 -97 -161 -181 -284 -181c-41 0 -109 10 -109 64
c0 18 10 34 29 34z" />
    <glyph glyph-name="asterisk" unicode="*" horiz-adv-x="725" 
d="M593 563l3 -30c0 -50 -107 -15 -107 -43c0 -12 43 -67 43 -93c0 -21 -65 -46 -73 -46c-30 0 -41 101 -62 101c-13 0 -69 -70 -93 -70c-17 0 -55 47 -55 61c0 35 78 65 78 84c0 17 -83 27 -83 63c0 13 24 67 44 67c26 0 72 -44 84 -44c14 0 14 35 15 42c3 23 1 60 33 60
c20 0 63 -5 63 -32c0 -21 -17 -66 -17 -83c0 -4 4 -8 9 -8c22 0 64 13 87 13c25 0 29 -20 31 -42z" />
    <glyph glyph-name="plus" unicode="+" 
d="M492 198h-68c-28 0 -41 1 -46 -4c-6 -6 -5 -19 -5 -47v-68c0 -45 5 -65 -58 -65s-58 20 -58 65v68c0 28 2 42 -4 47s-19 4 -47 4h-68c-45 0 -65 -5 -65 58s20 58 65 58h68c28 0 41 -1 47 5c5 5 4 18 4 46v68c0 45 -5 65 58 65s58 -20 58 -65v-68c0 -28 -1 -41 5 -46
s18 -5 46 -5h68c45 0 65 5 65 -58s-20 -58 -65 -58z" />
    <glyph glyph-name="comma" unicode="," horiz-adv-x="295" 
d="M126 -22c0 40 -76 27 -76 127c0 67 40 108 107 108c81 0 118 -60 119 -135c2 -109 -111 -265 -159 -265c-18 0 -51 30 -51 48c0 9 5 17 10 23c17 22 50 64 50 94z" />
    <glyph glyph-name="hyphen" unicode="-" horiz-adv-x="295" 
d="M137 367l98 -7c31 0 58 6 67 6c14 0 17 -13 17 -24c0 -35 -36 -167 -77 -164c-7 1 -17 1 -24 3c-86 6 -86 8 -176 4c-14 0 -22 9 -21 23c2 43 38 167 88 161c9 -1 19 -1 28 -2z" />
    <glyph glyph-name="period" unicode="." horiz-adv-x="295" 
d="M158 211c61 0 112 -44 109 -111c-3 -70 -58 -117 -119 -117s-112 47 -109 117c3 67 58 111 119 111z" />
    <glyph glyph-name="slash" unicode="/" horiz-adv-x="418" 
d="M114 143l167 385l52 130c9 26 16 41 49 43c27 1 86 2 88 -30c0 -12 -5 -27 -10 -37l-83 -172l-202 -463c-6 -17 -16 -50 -26 -65c-11 -19 -23 -27 -48 -28s-79 5 -81 33c-1 15 7 27 13 40z" />
    <glyph glyph-name="zero" unicode="0" 
d="M282 -7c-145 0 -230 104 -230 255c0 181 118 355 313 355c145 0 230 -104 230 -255c0 -181 -118 -355 -313 -355zM292 95c17 0 37 12 45 44c24 88 45 261 40 303c-3 24 0 59 -33 59c-17 0 -37 -12 -45 -44c-24 -88 -45 -261 -40 -303c3 -24 0 -59 33 -59z" />
    <glyph glyph-name="one" unicode="1" 
d="M216 237l11 118c0 25 -4 57 -35 57c-22 0 -45 -22 -64 -22c-21 0 -28 25 -28 42c0 48 30 64 69 83c63 31 233 82 301 82c35 0 58 -8 58 -47c0 -24 -14 -38 -33 -51c-25 -15 -26 -19 -31 -50c-16 -91 -24 -181 -30 -276c-3 -53 9 -58 59 -60c32 -2 56 -3 56 -41
c0 -82 -221 -80 -275 -80c-45 0 -190 -7 -190 66c0 39 23 43 55 46c31 4 42 6 57 35c12 22 17 72 20 98z" />
    <glyph glyph-name="two" unicode="2" 
d="M478 193c14 20 26 45 54 45c36 0 42 -32 42 -61c0 -54 -31 -220 -107 -220c-18 0 -26 8 -34 23c-3 5 -6 13 -11 16c-9 5 -40 4 -50 4h-216c-36 0 -117 -9 -117 47c0 24 16 41 32 57c53 48 252 219 252 304c0 27 -18 44 -44 44c-63 0 -113 -77 -155 -77
c-29 0 -54 35 -52 61c8 88 213 169 316 167c78 -2 178 -32 178 -126c0 -46 -15 -75 -42 -111c-39 -53 -150 -142 -154 -169c-3 -21 30 -20 46 -20c29 -1 43 -3 62 16z" />
    <glyph glyph-name="three" unicode="3" 
d="M575 200c0 -186 -155 -292 -329 -292c-63 0 -199 19 -199 103c0 19 15 45 36 45c25 0 61 -33 122 -33c72 0 132 37 132 117c0 65 -31 66 -71 64c-50 -3 -66 3 -66 57c0 25 0 38 26 46c44 13 97 46 97 98c0 30 -19 47 -48 47c-69 0 -101 -70 -138 -70c-28 0 -49 32 -49 58
c0 51 69 91 109 112c60 31 119 51 187 51c81 0 170 -36 170 -130c0 -77 -61 -115 -61 -133c0 -28 82 -41 82 -140z" />
    <glyph glyph-name="four" unicode="4" 
d="M574 177l-9 -109c-3 -30 0 -40 -34 -40c-13 0 -24 0 -27 -6c-3 -5 -4 -17 -7 -40c-2 -18 -2 -42 -7 -52c-5 -9 -13 -11 -42 -11h-112c-31 0 -42 3 -45 17c-4 18 6 69 6 82c0 14 -22 10 -29 10h-189c-10 0 -65 -7 -57 78c8 79 35 119 85 183l208 245
c51 55 106 113 187 113c37 0 77 -3 75 -47l-47 -375c-5 -29 -3 -31 17 -31c13 0 27 1 27 -17zM328 258l10 118c1 7 3 27 -9 27c-21 0 -145 -160 -145 -190c0 -25 91 -19 97 -19c47 0 44 27 47 64z" />
    <glyph glyph-name="five" unicode="5" 
d="M138 362l28 94c8 24 20 69 33 90s29 21 52 23l184 14c9 1 35 0 66 6c27 5 55 14 59 14c11 0 13 -14 13 -23c0 -34 -13 -98 -32 -126c-21 -31 -88 -35 -130 -37l-124 -7c-30 -2 -38 -5 -43 -43c-2 -15 8 -22 21 -25c14 -3 31 -3 48 -2c105 9 223 -48 229 -178
c7 -142 -137 -250 -279 -250c-56 0 -187 18 -187 95c0 17 6 40 27 40s58 -29 108 -29c48 0 95 23 95 78c0 65 -55 77 -110 80c-49 3 -95 -13 -95 31c0 35 26 119 37 155z" />
    <glyph glyph-name="six" unicode="6" 
d="M344 676c16 0 88 -23 88 -43c0 -7 -7 -15 -12 -20c-67 -75 -97 -128 -106 -156c-9 -27 1 -33 4 -29c11 0 42 33 112 33c101 0 154 -83 154 -177c0 -160 -122 -291 -284 -291c-144 0 -226 115 -226 253c0 90 34 192 82 268c30 48 128 162 188 162zM349 346
c-51 0 -71 -126 -71 -163c0 -26 1 -91 39 -91c51 0 71 125 71 162c0 26 -1 92 -39 92z" />
    <glyph glyph-name="seven" unicode="7" 
d="M605 496l-267 -586c-11 -24 -16 -37 -46 -37c-37 0 -158 43 -158 87c0 15 8 25 15 37l191 331c8 15 28 46 28 64c0 35 -84 27 -105 27c-50 -3 -67 3 -84 -37c-13 -27 -18 -43 -52 -43c-37 0 -51 31 -54 65c-4 48 50 209 112 213c32 2 19 -21 89 -21h225c22 1 44 4 66 4
c29 0 62 -5 62 -40c0 -18 -14 -48 -22 -64z" />
    <glyph glyph-name="eight" unicode="8" 
d="M129 378c-13 26 -24 48 -24 78c0 129 137 201 252 201c103 0 216 -57 216 -173c0 -76 -58 -110 -58 -123c0 -12 64 -50 64 -142c0 -150 -142 -230 -276 -230c-124 0 -251 77 -251 213c0 111 83 144 83 161c0 5 -4 12 -6 15zM276 507c0 -47 110 -86 113 -86
c14 0 14 32 14 40c0 43 -23 94 -72 94c-27 0 -55 -19 -55 -48zM393 142c0 36 -39 53 -67 66c-7 4 -79 43 -84 43c-16 0 -20 -42 -20 -51c0 -58 50 -109 108 -109c31 0 63 17 63 51z" />
    <glyph glyph-name="nine" unicode="9" 
d="M387 603c147 0 218 -108 218 -246c0 -97 -34 -198 -83 -282c-10 -13 -115 -193 -180 -193c-23 0 -91 28 -91 53c0 7 8 16 13 21c23 25 86 109 86 144c0 4 -1 10 -7 10c-15 0 -54 -29 -118 -29c-114 0 -173 97 -173 202c0 185 154 320 335 320zM307 207
c65 0 81 160 81 204c0 11 -2 77 -36 77c-65 0 -81 -160 -81 -204c0 -11 2 -77 36 -77z" />
    <glyph glyph-name="colon" unicode=":" horiz-adv-x="295" 
d="M210 517c61 0 110 -44 104 -111c-6 -70 -63 -117 -124 -117s-110 47 -104 117c6 67 63 111 124 111zM168 207c61 0 110 -44 104 -111c-6 -70 -63 -117 -124 -117s-110 47 -104 117c6 67 63 111 124 111z" />
    <glyph glyph-name="semicolon" unicode=";" horiz-adv-x="295" 
d="M126 -22c0 40 -76 27 -76 127c0 67 40 108 107 108c81 0 118 -60 119 -135c2 -109 -111 -265 -159 -265c-18 0 -51 30 -51 48c0 9 5 17 10 23c17 22 50 64 50 94zM203 517c61 0 112 -44 109 -111c-3 -70 -58 -117 -119 -117s-112 47 -109 117c3 67 58 111 119 111z" />
    <glyph glyph-name="less" unicode="&#x3c;" 
d="M257 256l262 -114c32 -13 38 -24 38 -47v-32c0 -16 -5 -49 -20 -49c-14 0 -25 6 -38 11l-409 178c-17 7 -16 35 -17 53c1 18 0 46 17 53l409 178c13 5 24 11 38 11c15 0 20 -33 20 -49v-31c0 -24 -6 -35 -38 -48z" />
    <glyph glyph-name="equal" unicode="=" 
d="M492 296h-354c-45 0 -65 -5 -65 58s20 58 65 58h354c45 0 65 5 65 -58s-20 -58 -65 -58zM492 100h-354c-45 0 -65 -5 -65 58s20 58 65 58h354c45 0 65 5 65 -58s-20 -58 -65 -58z" />
    <glyph glyph-name="greater" unicode="&#x3e;" 
d="M111 142l262 114l-262 114c-32 13 -38 24 -38 47v32c0 16 5 49 20 49c14 0 25 -6 38 -11l409 -178c17 -7 16 -35 17 -53c-1 -18 0 -46 -17 -53l-409 -178c-13 -5 -24 -11 -38 -11c-15 0 -20 33 -20 49v31c0 24 6 35 38 48z" />
    <glyph glyph-name="question" unicode="?" horiz-adv-x="487" 
d="M212 525c-15 -40 -31 -78 -82 -78c-36 0 -59 21 -59 58c0 134 185 212 296 210c84 -2 170 -43 170 -138c0 -91 -73 -147 -151 -179c-26 -12 -68 -24 -68 -59c0 -11 8 -21 8 -31c0 -34 -62 -45 -87 -45c-33 0 -60 18 -60 54c0 92 113 156 113 232c0 15 -7 31 -24 31
c-34 0 -45 -28 -56 -55zM237 207c61 0 112 -44 109 -111c-3 -70 -58 -117 -119 -117s-112 47 -109 117c3 67 58 111 119 111z" />
    <glyph glyph-name="at" unicode="@" horiz-adv-x="725" 
d="M492 496c14 0 49 30 91 30c21 0 28 -7 28 -19c0 -32 -44 -188 -44 -227c0 -13 4 -22 14 -22c11 0 90 31 102 164c7 78 -59 222 -241 222c-171 0 -312 -120 -327 -294c-16 -183 115 -293 291 -293c132 0 213 106 229 106s39 -28 38 -41c-1 -10 -130 -136 -286 -136
c-205 0 -362 146 -344 357c18 208 189 372 399 372c153 0 321 -104 305 -291c-15 -174 -146 -271 -299 -271c-64 0 -27 61 -50 61c-18 0 -59 -65 -133 -65c-58 0 -90 46 -84 117c13 142 139 260 228 260c46 0 62 -30 83 -30zM362 263c26 0 92 103 97 161c1 10 -1 24 -12 24
c-24 0 -93 -80 -100 -157c-1 -10 0 -28 15 -28z" />
    <glyph glyph-name="A" unicode="A" horiz-adv-x="775" 
d="M425 166h-134c-50 -4 -58 -18 -58 -44c0 -32 57 -9 57 -63c0 -35 -15 -67 -186 -67c-49 0 -125 0 -125 66c0 64 48 19 91 90c90 150 217 328 252 486c15 69 54 81 116 81c92 0 130 -50 159 -131c30 -84 88 -350 105 -424c18 -80 73 -30 73 -97c0 -78 -161 -71 -211 -71
c-41 0 -156 -7 -156 58c0 58 64 33 64 80c0 31 -24 29 -47 36zM342 281h65c29 2 33 10 33 26c0 41 -32 140 -49 140c-25 0 -79 -132 -79 -149c0 -11 15 -15 30 -17z" />
    <glyph glyph-name="B" unicode="B" horiz-adv-x="703" 
d="M367 568l-11 -112c-2 -23 -7 -41 21 -41c64 0 73 79 73 127c0 40 -11 62 -53 62c-31 0 -26 -5 -30 -36zM341 272l-10 -148c0 -20 15 -18 32 -18c71 0 79 75 79 129c0 53 -15 77 -70 77c-35 0 -28 -4 -31 -40zM448 0h-323c-91 0 -111 27 -111 62c0 56 62 37 72 70
c33 113 59 303 59 422c0 56 -67 28 -67 83s58 68 102 66c101 -4 203 -2 304 0c122 2 201 -53 201 -162c0 -100 -97 -144 -97 -159c0 -28 109 -25 109 -171c0 -74 -47 -211 -249 -211z" />
    <glyph glyph-name="C" unicode="C" horiz-adv-x="715" 
d="M327 304c0 -68 26 -150 107 -150c51 0 85 28 119 62c21 21 55 67 91 67c41 0 59 -29 59 -67c0 -53 -41 -152 -103 -156c-21 -2 -21 -2 -41 -12c-78 -41 -136 -62 -226 -62c-166 0 -289 100 -289 272c0 226 178 454 420 457c67 1 109 -23 120 -23c12 0 29 10 43 10
c58 0 105 -95 105 -157c0 -56 -31 -106 -92 -106c-93 0 -79 131 -169 131c-100 0 -144 -193 -144 -266z" />
    <glyph glyph-name="D" unicode="D" horiz-adv-x="797" 
d="M398 498l-26 -319c1 -33 -1 -58 35 -58c122 0 146 185 146 306c0 78 -12 164 -98 164c-61 0 -52 -56 -57 -93zM415 0h-226c-14 0 -29 -1 -43 -2c-15 -1 -29 -2 -44 -2c-43 0 -78 10 -78 59c0 69 62 30 80 87c25 80 57 319 57 396c0 81 -67 36 -67 96c0 65 61 68 111 67
c92 -2 197 3 295 5c110 2 311 -16 311 -302c0 -110 -39 -404 -396 -404z" />
    <glyph glyph-name="E" unicode="E" horiz-adv-x="697" 
d="M501 0h-267c-45 0 -91 -9 -136 -9c-64 0 -84 26 -84 59c0 60 62 32 84 96c23 70 58 310 58 385c0 78 -62 49 -62 104c0 58 53 71 101 69c25 -1 50 -2 76 -2c26 -1 52 -1 78 -1h157c36 0 58 3 73 6s24 6 34 6c34 0 84 -55 84 -149c0 -37 -18 -77 -60 -77
c-81 0 -35 99 -154 99c-101 0 -88 -18 -99 -124c-3 -39 -11 -47 22 -47c59 0 25 92 87 92c61 0 67 -80 67 -125c0 -53 -18 -183 -88 -183c-74 0 -16 101 -78 101c-42 0 -31 -93 -31 -124c0 -63 1 -61 67 -61c156 0 120 129 201 129c48 0 60 -39 60 -80
c0 -93 -69 -171 -106 -171c-6 0 -12 2 -23 4c-12 1 -29 3 -61 3z" />
    <glyph glyph-name="F" unicode="F" horiz-adv-x="654" 
d="M343 701h151c41 0 67 3 84 6s25 6 29 6c60 0 95 -101 95 -149c0 -44 -19 -83 -68 -83c-76 0 -39 105 -142 105c-90 0 -93 -12 -98 -49c-5 -26 -16 -90 -16 -115c0 -13 10 -12 21 -12c67 0 25 91 99 91c51 0 62 -68 62 -107c0 -56 -8 -204 -89 -204c-74 0 -18 105 -74 105
c-19 0 -38 3 -38 -150c0 -63 69 -30 69 -81c0 -76 -150 -72 -201 -72c-155 0 -207 14 -207 71c0 56 55 27 73 76c29 69 62 316 62 394c0 87 -67 36 -67 106c0 55 59 66 103 66c81 0 116 -4 152 -4z" />
    <glyph glyph-name="G" unicode="G" horiz-adv-x="770" 
d="M677 664c30 -32 47 -81 47 -124c0 -58 -37 -106 -97 -106c-91 0 -70 136 -160 136c-116 0 -156 -195 -156 -283c0 -61 22 -151 99 -151c39 0 64 27 64 66c0 29 -4 31 -31 38c-23 6 -39 21 -39 46c0 75 145 78 212 78c62 0 172 -6 172 -79c0 -32 -21 -41 -47 -47
c-28 -7 -28 -21 -37 -47c-53 -146 -211 -205 -356 -205c-182 0 -316 95 -316 286c0 229 186 443 421 443c59 0 99 -26 118 -26c13 0 29 9 45 9c23 0 47 -18 61 -34z" />
    <glyph glyph-name="H" unicode="H" horiz-adv-x="799" 
d="M345 248l-10 -121c0 -41 44 -22 44 -67c0 -36 -22 -68 -171 -68c-122 0 -188 6 -188 64c0 44 55 42 64 72c45 152 57 321 57 422c0 58 -57 28 -57 83c0 11 -15 76 218 76c121 0 146 -23 146 -59c0 -58 -59 -40 -68 -98c-8 -52 -13 -87 -13 -108c0 -14 -8 -29 85 -29
c18 0 61 2 69 24c7 19 12 97 12 120c0 55 -44 33 -44 82c0 51 39 68 204 68c134 0 155 -23 155 -57c0 -66 -64 -23 -74 -100c-17 -124 -42 -274 -46 -403c-2 -74 54 -24 54 -90c0 -38 -33 -67 -170 -67c-144 0 -195 6 -195 64c0 52 52 27 61 73c14 71 22 110 22 139
c0 31 -43 32 -65 32c-85 0 -83 -12 -90 -52z" />
    <glyph glyph-name="I" unicode="I" horiz-adv-x="461" 
d="M114 187l41 330c1 15 5 29 5 50c0 49 -70 17 -70 77c0 13 -11 65 195 65c165 0 218 -13 218 -66c0 -63 -77 -21 -87 -81c-3 -19 -8 -39 -12 -58l-39 -276c-3 -22 -7 -43 -7 -66c0 -81 71 -37 71 -99c0 -74 -136 -71 -188 -71c-167 0 -228 14 -228 74c0 66 88 13 101 121z
" />
    <glyph glyph-name="J" unicode="J" horiz-adv-x="616" 
d="M596 545l-36 -317c-21 -187 -222 -242 -339 -242c-97 0 -223 45 -223 160c0 75 59 130 138 130c50 0 97 -36 97 -89c0 -31 -16 -52 -16 -63c0 -15 14 -23 28 -23c95 -4 101 379 101 450c0 77 -81 -5 -81 75c0 54 43 83 238 83c185 0 174 -52 174 -70
c0 -69 -71 -7 -81 -94z" />
    <glyph glyph-name="K" unicode="K" horiz-adv-x="774" 
d="M694 573l-85 -69c-36 -30 -68 -60 -68 -72c0 -9 11 -30 15 -39l141 -259c29 -45 73 -44 73 -82c0 -34 -8 -60 -163 -60c-104 0 -110 18 -152 109l-68 131c-6 11 -23 48 -38 48c-26 0 -22 -54 -23 -69c0 -22 -2 -52 1 -73c7 -40 49 -35 49 -71c0 -77 -141 -75 -195 -75
c-168 0 -167 43 -167 67c0 51 49 21 67 86c28 97 58 303 58 406c0 51 -56 29 -56 83c0 62 109 75 180 75c179 0 172 -44 172 -60c0 -58 -50 -30 -66 -78c-6 -22 -15 -77 -15 -99c0 -8 -1 -30 10 -30c18 0 154 125 154 151c0 12 -19 26 -19 52c0 27 13 64 173 64
c115 0 130 -36 130 -67c0 -67 -58 -28 -108 -69z" />
    <glyph glyph-name="L" unicode="L" horiz-adv-x="657" 
d="M503 0h-328c-3 0 -15 -1 -32 -1c-16 -1 -37 -2 -58 -2c-38 0 -71 15 -71 59c0 60 57 34 82 95c23 56 57 331 57 408c0 43 -72 24 -72 81c0 58 73 69 263 69c126 0 146 -24 146 -61c0 -90 -91 12 -105 -153l-24 -293c-2 -18 -5 -42 1 -59c11 -26 62 -22 83 -22
c127 0 105 122 178 122c43 0 60 -28 60 -69c0 -53 -35 -185 -103 -185c-18 0 -27 3 -36 6c-10 2 -20 5 -41 5z" />
    <glyph glyph-name="M" unicode="M" horiz-adv-x="922" 
d="M572 278l-78 -124c-15 -24 -46 -75 -78 -75c-34 0 -42 34 -51 60l-40 121c-2 7 -21 73 -33 73c-13 0 -17 -31 -19 -38c-2 -10 -29 -133 -29 -164c0 -44 49 -36 49 -75c0 -33 -13 -64 -168 -64c-42 0 -125 1 -125 60c0 68 56 28 78 88c45 120 95 279 97 391
c1 77 -83 36 -83 98c0 20 11 80 211 80c81 0 96 -17 126 -88c27 -63 54 -199 81 -199c32 0 121 180 134 203c42 76 83 84 165 84c46 0 149 -1 149 -67c0 -78 -75 -10 -89 -126c-9 -117 -23 -236 -23 -354c0 -66 56 -56 56 -95c0 -57 -86 -75 -221 -75c-45 0 -150 1 -150 66
c0 49 55 36 67 65c16 40 32 150 32 195c0 7 1 20 -10 20c-13 0 -41 -49 -48 -60z" />
    <glyph glyph-name="N" unicode="N" horiz-adv-x="813" 
d="M555 644c0 22 -5 65 171 65c89 0 151 -7 151 -65c0 -62 -87 -21 -94 -88c-1 -8 -14 -63 -18 -94l-41 -284c-23 -158 -59 -186 -117 -186c-63 0 -97 60 -128 106l-146 220c-8 12 -36 57 -53 57c-22 0 -25 -60 -27 -74c-5 -31 -15 -140 -15 -154c0 -67 70 -49 70 -96
c0 -57 -93 -59 -133 -59c-43 0 -175 1 -175 64c0 50 60 32 74 70c60 162 63 309 75 417c8 76 -80 22 -80 92s81 74 196 74c87 0 103 -10 168 -114l113 -169c6 -9 44 -69 57 -69c34 0 33 165 33 175c6 120 -81 29 -81 112z" />
    <glyph glyph-name="O" unicode="O" horiz-adv-x="752" 
d="M779 441c0 -249 -195 -455 -440 -455c-170 0 -296 97 -296 274c0 249 195 455 440 455c170 0 296 -97 296 -274zM376 115c107 0 134 267 134 344c0 39 -3 132 -64 127c-107 0 -134 -267 -134 -344c0 -39 3 -132 64 -127z" />
    <glyph glyph-name="P" unicode="P" horiz-adv-x="667" 
d="M378 518l-11 -82c-2 -15 -7 -46 -7 -59c0 -16 4 -17 19 -17c78 0 92 127 92 184c0 40 -18 63 -58 63c-25 0 -26 -25 -35 -89zM349 255l-5 -76c-16 -114 65 -49 65 -118c0 -51 -61 -69 -218 -69c-177 0 -177 42 -177 67c0 61 53 16 72 81c26 89 63 338 63 429
c0 49 -71 11 -71 72c0 56 64 65 107 65c24 0 54 -1 82 -2c29 -2 55 -3 72 -3c26 0 52 1 79 3c26 1 52 2 78 2c124 0 220 -43 220 -184c0 -132 -89 -268 -320 -268c-16 0 -31 1 -47 1z" />
    <glyph glyph-name="Q" unicode="Q" horiz-adv-x="772" 
d="M784 441c0 -190 -114 -345 -238 -403c15 -33 89 -43 102 -43c43 0 59 24 86 24c24 0 41 -31 41 -52c0 -102 -128 -147 -212 -147c-114 0 -181 55 -270 120c-27 20 -71 51 -105 51c-36 0 -59 -23 -89 -23c-32 0 -47 29 -47 58c0 33 21 51 47 66c-38 50 -53 115 -51 168
c0 249 195 455 440 455c170 0 296 -97 296 -274zM381 115c107 0 134 267 134 344c0 39 -3 132 -64 127c-107 0 -134 -267 -134 -344c0 -39 3 -132 64 -127z" />
    <glyph glyph-name="R" unicode="R" horiz-adv-x="775" 
d="M384 552l-12 -111c-2 -22 -4 -35 24 -35c60 0 70 85 70 130c0 38 -10 66 -53 66c-29 0 -26 -27 -29 -50zM354 275l-9 -125c0 -27 -1 -38 24 -51c19 -9 33 -16 33 -39c0 -71 -152 -68 -199 -68c-45 0 -189 -5 -189 70c0 21 10 32 30 38c32 11 32 15 47 50
c27 64 65 340 53 421c-3 17 -11 18 -26 22c-26 7 -40 10 -40 41c0 56 58 66 102 68h329c114 3 207 -36 216 -154c9 -129 -103 -151 -103 -176c0 -14 10 -18 20 -26c21 -15 35 -23 44 -49c18 -55 10 -126 24 -172c5 -16 12 -21 26 -26c17 -7 39 -13 39 -34
c0 -58 -99 -73 -142 -73c-211 0 -158 169 -194 279c-8 24 -30 32 -54 32c-25 0 -28 -3 -31 -28z" />
    <glyph glyph-name="S" unicode="S" horiz-adv-x="643" 
d="M296 -15c-132 0 -275 62 -275 213c0 49 24 93 78 93c51 0 66 -47 81 -86c18 -45 48 -95 102 -95c34 0 67 19 67 57c0 88 -238 125 -238 316c0 150 134 232 272 232c49 0 88 -17 101 -17s31 17 59 17c59 0 108 -91 108 -143c0 -44 -32 -85 -78 -85c-73 0 -94 104 -161 104
c-26 0 -47 -14 -47 -42c0 -37 33 -57 62 -72c103 -56 201 -105 201 -238c0 -176 -180 -254 -332 -254z" />
    <glyph glyph-name="T" unicode="T" horiz-adv-x="676" 
d="M246 701h285c39 0 58 3 71 6s20 6 33 6c61 0 97 -109 97 -157c0 -53 -26 -100 -83 -100c-76 0 -63 124 -107 124c-32 0 -33 -42 -41 -114c-6 -60 -27 -215 -27 -300c0 -86 76 -42 76 -102c0 -30 -36 -72 -244 -72c-180 0 -183 47 -183 68c0 60 71 30 89 78
c24 64 59 394 59 409s-6 33 -24 33c-50 0 -38 -124 -127 -124c-46 0 -71 32 -71 75c0 63 58 182 132 182c10 0 19 -3 29 -6c11 -3 22 -6 36 -6z" />
    <glyph glyph-name="U" unicode="U" horiz-adv-x="795" 
d="M771 544l-31 -205c-26 -180 -62 -353 -337 -353c-161 0 -302 52 -302 212c0 116 41 244 40 347c-1 68 -66 22 -66 82c0 8 -23 82 232 82c158 0 162 -41 162 -69c0 -70 -78 -15 -88 -132c-29 -232 -25 -170 -33 -266c-6 -73 22 -114 93 -114c65 0 109 30 131 91
c32 86 46 235 46 327c0 77 -79 28 -79 100c0 38 27 63 158 63c168 0 161 -46 161 -61c0 -73 -75 -23 -87 -104z" />
    <glyph glyph-name="V" unicode="V" horiz-adv-x="743" 
d="M728 570l-214 -436c-60 -115 -87 -142 -144 -142c-80 0 -91 61 -137 229l-87 317c-17 61 -77 30 -77 87c0 25 -9 84 223 84c146 0 156 -32 156 -70c0 -53 -68 -30 -60 -78c14 -85 50 -253 71 -253c25 0 113 229 113 264c0 36 -45 34 -45 77c0 59 111 60 152 60
c111 0 133 -29 133 -56c0 -69 -61 -36 -84 -83z" />
    <glyph glyph-name="W" unicode="W" horiz-adv-x="1129" 
d="M1114 562l-238 -465c-35 -68 -74 -105 -117 -105c-59 0 -79 71 -91 117c-7 26 -50 200 -72 200c-24 0 -118 -189 -128 -211c-17 -39 -55 -106 -113 -106c-66 0 -78 84 -90 133l-111 429c-11 43 -73 18 -73 76c0 66 101 79 236 79c47 0 123 -2 123 -65
c0 -50 -51 -32 -51 -92c0 -31 37 -221 60 -221c29 0 101 149 101 193c0 74 -67 61 -67 111c0 39 33 74 208 74c103 0 149 -21 149 -59c0 -66 -62 -33 -62 -91c0 -59 46 -236 73 -236c17 0 40 52 46 65c17 38 69 144 69 189c0 36 -42 26 -42 72c0 43 50 60 160 60
c40 0 126 0 126 -58c0 -59 -68 -35 -96 -89z" />
    <glyph glyph-name="X" unicode="X" horiz-adv-x="716" 
d="M244 410l-80 146c-30 55 -90 28 -90 80c0 70 126 73 251 73c39 0 120 2 120 -54c0 -45 -46 -47 -46 -68c0 -12 24 -73 38 -73c16 0 61 65 61 87c0 10 -10 32 -10 48c0 31 11 60 144 60c38 0 120 -1 120 -56c0 -75 -81 -17 -152 -109l-75 -104c-6 -7 -31 -39 -31 -50
c0 -13 43 -88 50 -101l84 -143c30 -56 82 -39 82 -83c0 -19 8 -71 -212 -71c-130 0 -157 21 -157 63c0 43 49 31 49 61c0 16 -36 105 -54 105s-79 -93 -79 -115c0 -12 28 -25 28 -57c0 -55 -103 -57 -142 -57s-144 -2 -144 56c0 60 58 27 139 120l110 127c16 18 29 33 29 45
c0 11 -27 60 -33 70z" />
    <glyph glyph-name="Y" unicode="Y" horiz-adv-x="704" 
d="M239 403l-101 164c-33 43 -82 25 -82 70c0 55 54 72 245 72c108 0 135 -19 135 -58c0 -46 -45 -42 -45 -69c0 -18 36 -96 53 -97c15 -1 78 91 78 103c0 20 -34 27 -34 63c0 56 110 58 147 58c87 0 132 -13 132 -56c0 -55 -70 -36 -97 -69l-117 -144
c-66 -81 -66 -89 -71 -193l-4 -117c-2 -50 71 -18 71 -69c0 -19 6 -69 -196 -69c-105 0 -201 2 -201 59c0 63 79 31 86 81l28 202c0 25 -14 48 -27 69z" />
    <glyph glyph-name="Z" unicode="Z" horiz-adv-x="640" 
d="M72 125l220 335c20 30 50 76 50 95s-30 25 -44 25c-153 0 -77 -120 -171 -120c-43 0 -60 30 -60 70c0 74 59 179 115 179c16 0 18 -2 23 -4s13 -4 40 -4h319c35 0 96 4 96 -46c0 -43 -47 -95 -113 -207l-131 -220c-10 -17 -39 -60 -39 -79s42 -24 55 -24
c134 0 78 112 153 112c43 0 60 -35 60 -73c0 -47 -39 -175 -98 -175c-19 0 -47 14 -98 11h-175c-29 0 -58 -1 -87 -2c-30 -2 -59 -3 -88 -3c-32 0 -66 6 -66 46c0 26 26 65 39 84z" />
    <glyph glyph-name="bracketleft" unicode="[" horiz-adv-x="566" 
d="M434 615l-90 -579c-2 -30 1 -42 34 -46c37 0 63 4 85 4c20 0 42 -5 42 -30c0 -71 -163 -60 -200 -60c-30 0 -98 0 -125 9c-30 11 -29 55 -25 81l91 627c6 41 17 122 50 153c27 26 112 23 148 23c48 -2 182 12 182 -51c0 -28 -24 -41 -52 -43c-27 -2 -58 4 -71 4
c-14 0 -37 -1 -48 -12c-13 -17 -18 -62 -21 -80z" />
    <glyph glyph-name="backslash" unicode="\" horiz-adv-x="445" 
d="M224 528l181 -385l87 -164c6 -13 14 -25 13 -40c0 -28 -54 -34 -79 -33s-37 9 -49 28c-11 15 -21 48 -29 65l-218 463l-89 172c-5 10 -10 25 -10 37c0 32 59 31 86 30c33 -2 40 -17 51 -43z" />
    <glyph glyph-name="bracketright" unicode="]" horiz-adv-x="566" 
d="M193 86l90 579c2 30 -1 42 -34 46c-37 0 -63 -4 -85 -4c-20 0 -42 5 -42 30c0 71 163 60 200 60c30 0 98 0 125 -9c30 -11 29 -55 25 -81l-91 -627c-6 -41 -17 -122 -50 -153c-27 -26 -112 -23 -148 -23c-48 2 -182 -12 -182 51c0 28 24 41 52 43c27 2 58 -4 71 -4
c14 0 37 1 48 12c13 17 18 62 21 80z" />
    <glyph glyph-name="asciicircum" unicode="^" 
d="M429 204l-114 262l-114 -262c-13 -32 -24 -38 -47 -38h-32c-16 0 -49 5 -49 20c0 14 6 25 11 38l178 409c7 17 35 16 53 17c18 -1 46 0 53 -17l178 -409c5 -13 11 -24 11 -38c0 -15 -33 -20 -49 -20h-31c-24 0 -35 6 -48 38z" />
    <glyph glyph-name="underscore" unicode="_" horiz-adv-x="500" 
d="M0 -75h500v-50h-500v50z" />
    <glyph glyph-name="quoteleft" unicode="&#x2018;" horiz-adv-x="306" 
d="M240 550c0 -40 76 -27 76 -127c0 -67 -40 -108 -107 -108c-81 0 -118 60 -119 135c-2 109 111 265 159 265c18 0 51 -30 51 -48c0 -9 -5 -17 -10 -23c-17 -22 -50 -64 -50 -94z" />
    <glyph glyph-name="a" unicode="a" horiz-adv-x="630" 
d="M289 144c53 4 118 174 116 224c0 13 -4 33 -20 32c-53 -4 -120 -153 -119 -217c0 -15 3 -41 23 -39zM567 512c28 0 43 -10 41 -38c-4 -60 -22 -150 -30 -258c-1 -16 -5 -48 1 -64c4 -12 11 -11 22 -12c15 -2 25 -9 25 -25c0 -65 -146 -123 -201 -123c-89 0 -46 85 -78 85
c-26 0 -75 -90 -178 -90c-92 0 -130 81 -126 162c8 180 120 348 274 362c70 7 98 -41 127 -41c11 0 29 11 38 16c28 14 54 26 85 26z" />
    <glyph glyph-name="b" unicode="b" horiz-adv-x="599" 
d="M340 630l-7 -64c-3 -34 -10 -70 -10 -105c0 -8 3 -18 12 -18c19 0 62 75 143 75c100 0 139 -91 134 -177c-12 -198 -136 -357 -361 -354c-82 1 -184 30 -184 129c0 47 15 120 23 168c12 77 25 168 25 246c0 28 0 38 -30 40s-42 4 -42 39c0 43 39 57 74 69
c41 15 130 37 173 37c61 0 54 -29 50 -85zM359 361c-57 0 -79 -217 -76 -234c2 -14 4 -34 22 -34c62 0 83 195 82 212c-1 18 -2 56 -28 56z" />
    <glyph glyph-name="c" unicode="c" horiz-adv-x="550" 
d="M435 152c15 9 31 21 49 21c26 0 39 -33 39 -55c0 -36 -45 -64 -73 -79c-61 -34 -122 -52 -193 -52c-123 0 -218 55 -218 189c0 185 167 341 349 341c81 0 165 -40 168 -133c2 -63 -54 -123 -117 -123c-33 0 -74 22 -74 60c0 27 17 50 17 67c0 10 -8 18 -18 18
c-62 1 -82 -162 -79 -207c0 -32 6 -82 49 -82c37 0 70 17 101 35z" />
    <glyph glyph-name="d" unicode="d" horiz-adv-x="629" 
d="M286 149c59 1 110 168 109 221c0 14 -3 35 -26 35c-59 0 -107 -170 -106 -225c1 -17 5 -32 23 -31zM303 517c51 1 72 -30 86 -30c19 0 26 62 26 75s-6 22 -19 22c-7 0 -14 -2 -21 -2c-20 0 -30 11 -30 31c0 44 45 61 81 73c39 13 123 30 163 30c31 0 46 -18 46 -48
l-4 -43l-24 -173l-19 -136l-13 -139c0 -28 2 -33 29 -36c17 -2 28 -9 29 -28c4 -63 -167 -120 -210 -121c-49 -2 -52 25 -58 65c-1 10 -6 26 -19 26c-20 0 -79 -96 -182 -96c-97 0 -123 71 -125 157c-2 144 90 368 264 373z" />
    <glyph glyph-name="e" unicode="e" horiz-adv-x="565" 
d="M424 517c79 0 146 -31 146 -119c0 -121 -135 -215 -248 -215c-14 0 -39 0 -39 -21c0 -29 36 -45 61 -45c72 0 127 57 159 57c21 0 40 -22 40 -42c0 -53 -67 -86 -108 -105c-56 -25 -110 -40 -173 -40c-122 0 -228 53 -223 187c9 208 203 343 385 343zM350 418
c-41 0 -69 -93 -69 -125c0 -12 4 -28 18 -28c28 0 77 74 74 122c-1 13 -7 31 -23 31z" />
    <glyph glyph-name="f" unicode="f" horiz-adv-x="431" 
d="M429 385l-3 -45c-1 -28 1 -33 -27 -33c-30 -1 -31 -9 -36 -38l-39 -308c0 -40 6 -74 -31 -99c-33 -23 -112 -41 -151 -41c-38 0 -92 14 -92 60c0 17 7 27 18 37c25 23 21 32 29 67c18 77 47 221 47 298c0 30 -25 25 -47 25c-33 0 -40 2 -40 19c0 6 1 18 2 30l3 33
c3 18 0 30 22 29c24 0 51 -5 51 12c0 22 -45 39 -45 118c0 111 114 168 212 168c63 0 138 -33 138 -106c0 -47 -31 -87 -80 -87c-38 0 -59 16 -86 39c-10 8 -24 23 -38 23c-16 0 -26 -14 -26 -28c0 -25 22 -43 45 -49c44 -12 95 -27 113 -74c7 -19 7 -16 29 -16
c33 0 35 2 32 -34z" />
    <glyph glyph-name="g" unicode="g" horiz-adv-x="608" 
d="M304 108l141 4c68 0 126 -35 126 -109c0 -140 -181 -182 -292 -182c-71 0 -234 15 -234 113c0 37 28 43 28 57c0 13 -37 29 -37 79c0 45 34 76 73 92c10 4 22 6 22 19c0 10 -5 12 -12 18c-36 31 -53 59 -53 108c0 143 160 208 281 208c17 0 34 -2 51 -4s34 -4 51 -4
c54 0 55 65 93 65c31 0 67 -41 67 -71s-21 -46 -21 -56c0 -8 31 -33 27 -86c-13 -161 -159 -205 -284 -205c-49 0 -77 9 -91 9c-13 0 -23 -10 -23 -23c0 -36 65 -32 87 -32zM325 241c55 0 61 111 66 153c3 22 -5 39 -31 39c-58 0 -64 -114 -67 -155c-2 -23 6 -37 32 -37z
M266 -107c24 0 101 6 101 42c0 13 -11 18 -22 16c-78 -11 -158 10 -178 9c-8 -1 -8 -13 -8 -18c0 -43 77 -49 107 -49z" />
    <glyph glyph-name="h" unicode="h" horiz-adv-x="658" 
d="M347 536l-10 -62c-3 -15 -11 -46 3 -46c18 0 98 89 189 89c68 0 114 -34 114 -105c0 -75 -33 -184 -34 -241c-1 -52 54 -7 51 -56c-5 -71 -156 -126 -214 -122c-51 3 -73 25 -73 76c0 65 42 192 42 243c0 20 -7 42 -29 42c-75 0 -94 -201 -99 -240c-3 -24 -5 -59 -23 -77
c-25 -26 -89 -46 -124 -46c-41 0 -87 11 -87 60c0 26 14 78 18 106c11 77 59 295 59 390c0 21 -3 33 -27 34c-23 1 -45 -1 -45 31c0 45 57 65 92 76c47 15 99 27 148 27c38 0 67 -6 67 -48c0 -34 -13 -96 -18 -131z" />
    <glyph glyph-name="i" unicode="i" horiz-adv-x="370" 
d="M80 114l26 170c4 23 9 42 9 55s-5 20 -22 20c-15 0 -39 -1 -39 35c0 43 46 62 79 76c47 20 123 42 174 42c31 0 45 -16 45 -46c0 -43 -15 -128 -17 -142c-2 -11 -20 -126 -25 -165c-2 -19 11 -19 27 -19c19 0 33 -1 33 -25c0 -76 -158 -122 -215 -122
c-38 0 -81 23 -81 65c0 19 3 37 6 56zM189 553c-34 2 -89 11 -89 55c0 80 143 121 207 121c36 0 84 -14 83 -57c-1 -73 -141 -123 -201 -119z" />
    <glyph glyph-name="j" unicode="j" horiz-adv-x="361" 
d="M349 410l-49 -361c-19 -127 -14 -221 -185 -235c-27 -2 -83 5 -83 43c0 15 4 17 13 27c18 20 15 24 19 52l41 288c3 22 14 85 14 105c0 21 -6 26 -26 25c-21 0 -34 3 -34 28c0 44 40 66 75 83c47 22 121 46 173 46c33 0 49 -9 49 -46c0 -18 -4 -37 -7 -55zM186 548
c-34 2 -89 11 -89 55c0 80 143 121 207 121c36 0 84 -14 83 -57c-1 -73 -141 -123 -201 -119z" />
    <glyph glyph-name="k" unicode="k" horiz-adv-x="650" 
d="M347 615l-18 -133c-1 -6 -8 -40 9 -40c9 0 24 12 31 17c46 33 88 59 147 59c80 0 127 -42 127 -124c0 -66 -46 -107 -100 -135c-5 -3 -25 -9 -25 -17c0 -4 7 -15 10 -20l45 -72c10 -14 11 -15 25 -22c18 -8 27 -10 27 -32c0 -63 -138 -105 -188 -105
c-63 0 -73 55 -92 105c-5 13 -22 64 -36 64c-16 0 -22 -28 -23 -40c-8 -88 -19 -117 -158 -128c-44 -4 -70 10 -70 52c0 15 1 30 4 45c20 116 64 316 64 447c0 33 -3 45 -37 42c-24 -2 -32 -1 -33 25c-4 88 195 112 250 112c31 0 47 -7 47 -41c0 -16 -4 -42 -6 -59zM304 230
c36 0 110 61 110 113c0 15 -7 28 -23 28c-47 0 -93 -89 -93 -130c0 -4 0 -11 6 -11z" />
    <glyph glyph-name="l" unicode="l" horiz-adv-x="376" 
d="M359 667l-53 -484c0 -12 1 -35 17 -35c10 0 20 3 30 3c17 0 22 -17 22 -31c0 -83 -163 -127 -228 -127c-54 0 -87 25 -81 97c14 162 45 346 58 463c2 16 -2 24 -19 24c-8 0 -16 -2 -24 -2c-20 0 -31 9 -31 29c0 50 46 66 86 79c49 16 115 32 166 32c35 0 57 -9 57 -48z
" />
    <glyph glyph-name="m" unicode="m" horiz-adv-x="978" 
d="M537 512c47 0 91 -24 105 -71c2 -7 2 -19 11 -19c16 0 86 90 193 90c61 0 100 -40 100 -100c0 -57 -33 -199 -33 -244c0 -51 53 -9 53 -53c0 -74 -150 -119 -204 -122c-46 -2 -69 28 -74 71c0 87 33 172 33 252c0 18 -5 32 -25 32c-77 0 -78 -142 -83 -189
c-6 -54 -13 -104 -29 -122c-31 -35 -105 -44 -149 -44c-42 0 -60 13 -60 57c0 79 38 175 38 261c0 21 -2 37 -27 37c-70 0 -79 -170 -82 -215c-9 -98 -2 -129 -170 -141c-39 -3 -66 10 -66 54c0 37 40 198 40 282c0 19 -3 33 -24 33c-22 0 -48 0 -48 31c0 37 50 59 78 73
c47 23 101 47 155 47c36 0 51 -24 54 -57c0 -9 2 -33 15 -33c24 0 105 90 199 90z" />
    <glyph glyph-name="n" unicode="n" horiz-adv-x="668" 
d="M412 228l12 89c0 18 -9 32 -28 32c-73 0 -86 -152 -92 -213c-10 -110 -32 -136 -161 -143c-36 -2 -73 8 -73 52c0 50 46 200 43 287c0 20 -7 32 -28 32h-10c-20 0 -28 12 -28 32c0 28 29 48 51 60c42 25 134 55 182 55c61 0 34 -88 65 -88c25 0 107 89 194 89
c58 0 114 -34 114 -97c0 -71 -35 -191 -35 -252c0 -40 48 -15 48 -54c0 -73 -151 -116 -208 -116c-44 0 -72 22 -72 67c0 51 18 116 26 168z" />
    <glyph glyph-name="o" unicode="o" horiz-adv-x="611" 
d="M271 -13c-125 0 -228 67 -228 198c0 191 150 332 340 332c125 0 228 -67 228 -198c0 -191 -150 -332 -340 -332zM350 411c-42 0 -52 -64 -59 -95c-11 -54 -20 -122 -20 -177c0 -23 6 -46 32 -46c42 0 50 60 56 90c10 51 24 128 24 179c0 23 -5 49 -33 49z" />
    <glyph glyph-name="p" unicode="p" horiz-adv-x="644" 
d="M391 361c-59 0 -80 -194 -80 -237c0 -18 3 -31 24 -31c59 0 88 173 88 217c0 21 -4 51 -32 51zM93 -3l26 282c0 17 0 43 -7 58c-5 11 -18 12 -29 13c-24 1 -41 4 -41 36c0 43 55 60 87 74c34 15 110 52 144 52c32 0 42 -24 43 -43c0 -12 3 -26 19 -26c25 0 71 70 174 70
c100 0 135 -105 135 -189c0 -144 -95 -337 -261 -337c-13 0 -24 3 -35 7c-10 3 -18 6 -26 6c-28 0 -15 -70 -9 -83c10 -22 52 -19 52 -50c0 -51 -73 -56 -109 -56c-54 0 -216 8 -216 85c0 22 10 30 26 43c22 18 23 30 27 58z" />
    <glyph glyph-name="q" unicode="q" horiz-adv-x="630" 
d="M623 479l-51 -515c0 -28 2 -43 27 -58c15 -9 38 -18 38 -39c0 -53 -99 -56 -135 -56c-7 1 -225 -7 -225 69c0 25 17 33 39 38c25 6 28 14 36 40c3 9 36 123 7 123c-25 0 -70 -95 -182 -95c-93 0 -138 72 -138 159c0 164 119 365 308 372c60 2 84 -37 108 -37
c30 0 82 47 127 47c34 0 41 -16 41 -48zM293 135c53 7 121 167 121 240c0 18 -8 36 -28 36c-56 0 -118 -157 -119 -235c0 -17 4 -41 26 -41z" />
    <glyph glyph-name="r" unicode="r" horiz-adv-x="529" 
d="M345 295l-15 -162c6 -97 -36 -135 -173 -141c-37 -2 -77 8 -77 53c0 60 40 185 42 278c1 27 -2 35 -29 35c-31 0 -47 8 -47 44c0 54 81 70 119 89c27 14 60 26 92 26c61 0 34 -95 66 -95c29 0 26 96 119 96c65 0 109 -56 109 -119c0 -61 -30 -120 -98 -120
c-36 0 -50 14 -67 43c-3 6 -12 24 -20 24c-14 0 -20 -42 -21 -51z" />
    <glyph glyph-name="s" unicode="s" horiz-adv-x="472" 
d="M477 433c0 -30 -18 -73 -53 -73c-40 0 -40 58 -78 58c-17 0 -31 -12 -31 -29c0 -65 143 -113 143 -233c0 -124 -146 -169 -247 -169c-64 0 -182 18 -182 102c0 30 19 71 53 71c42 0 35 -67 85 -67c20 0 43 11 43 33c0 53 -125 105 -125 217c0 120 137 174 240 174
c52 0 152 -17 152 -84z" />
    <glyph glyph-name="t" unicode="t" horiz-adv-x="423" 
d="M320 321l-13 -99c-10 -44 3 -71 28 -71c24 0 42 19 57 19c21 0 27 -19 27 -36c0 -78 -190 -142 -248 -142c-60 0 -100 29 -100 93c0 32 5 64 10 95l30 176c7 39 4 44 -36 44c-24 0 -37 7 -37 34c0 43 21 67 63 71c32 4 35 14 49 60c9 30 20 59 47 72c35 17 86 22 125 22
c25 0 38 -11 38 -37c-2 -20 -9 -77 -9 -93c0 -30 33 -20 63 -20c13 0 25 -3 25 -18c0 -14 -3 -30 -5 -43c-3 -22 -3 -43 -30 -43c-69 0 -69 3 -84 -84z" />
    <glyph glyph-name="u" unicode="u" horiz-adv-x="681" 
d="M657 419l-34 -193c-3 -15 -6 -31 -6 -46c0 -22 11 -30 31 -30c23 -1 35 0 35 -27c0 -77 -167 -130 -228 -130c-64 0 -34 89 -69 89c-22 0 -107 -93 -211 -89c-56 2 -87 38 -89 103c-2 56 21 138 29 207c3 26 10 49 -23 53c-20 2 -42 5 -42 31c0 40 56 69 86 83
c49 23 107 41 161 41c38 0 51 -20 51 -57c0 -39 -20 -134 -29 -186c-2 -13 -27 -112 16 -112c32 0 55 40 66 64c41 94 22 220 67 257c28 25 99 35 136 35c31 0 58 -9 58 -43c0 -13 -4 -37 -5 -50z" />
    <glyph glyph-name="v" unicode="v" 
d="M339 453c0 -60 -18 -134 -27 -196c-6 -43 -30 -144 42 -144c84 0 121 121 121 189c0 67 -54 111 -54 152c0 45 50 57 87 57c68 0 87 -50 87 -111c0 -199 -104 -413 -329 -413c-91 0 -187 47 -187 150c0 66 30 181 30 211c0 18 -8 26 -26 27c-22 2 -36 0 -36 28
c0 79 165 109 224 109c41 0 68 -14 68 -59z" />
    <glyph glyph-name="w" unicode="w" horiz-adv-x="910" 
d="M614 -13c-121 -2 -161 85 -173 85c-15 0 -92 -85 -212 -85c-91 0 -145 60 -145 149c0 64 29 174 29 207c0 25 -8 25 -30 27c-21 2 -28 17 -28 37c0 40 34 54 67 66c43 17 127 39 172 39c43 0 53 -27 53 -66c0 -63 -29 -160 -37 -229c-4 -45 -1 -89 28 -89
c90 0 109 203 110 261c2 107 78 117 182 122c37 2 55 -9 55 -49c0 -87 -43 -190 -45 -262c-1 -52 8 -87 46 -87c82 0 121 114 121 182c0 84 -48 118 -48 165c0 38 41 52 73 52c76 0 93 -55 95 -122c7 -206 -103 -400 -313 -403z" />
    <glyph glyph-name="x" unicode="x" horiz-adv-x="564" 
d="M565 393c0 -24 -19 -56 -46 -56c-22 0 -32 24 -49 24c-15 0 -61 -48 -61 -63c0 -13 45 -103 62 -103c10 0 25 16 44 16c22 0 41 -21 41 -43c0 -67 -131 -175 -196 -175c-59 0 -84 124 -106 133c-11 4 -99 -133 -151 -133c-48 0 -60 83 -60 117c0 25 11 71 44 71
c25 0 32 -26 46 -26c12 0 68 56 68 69c0 14 -41 97 -60 97c-12 0 -24 -20 -44 -20c-26 0 -40 26 -40 49c0 78 146 162 208 162c25 0 42 -14 59 -56c7 -16 31 -57 34 -57c13 0 83 112 127 112c49 0 80 -77 80 -118z" />
    <glyph glyph-name="y" unicode="y" horiz-adv-x="623" 
d="M630 373c4 -216 -165 -567 -423 -567c-89 0 -179 49 -179 147c0 61 43 100 102 100c48 0 85 -27 85 -77c0 -17 -4 -34 -4 -51c0 -11 4 -20 16 -20c32 0 48 48 47 73c-2 74 -96 335 -134 335c-15 0 -36 -34 -58 -34c-26 0 -48 33 -46 57c6 64 174 176 232 176
c56 0 75 -48 94 -92c27 -64 74 -240 99 -246c27 -6 39 97 39 117c0 70 -46 88 -46 139c0 47 42 76 86 76c79 0 90 -70 90 -133z" />
    <glyph glyph-name="z" unicode="z" horiz-adv-x="506" 
d="M240 506h208c25 1 66 1 66 -33c0 -35 -30 -62 -47 -89c-7 -12 -164 -170 -164 -201c0 -14 10 -17 22 -17s26 2 33 3c40 5 43 10 52 26c11 20 18 34 43 34c37 0 46 -27 46 -60c0 -52 -44 -175 -98 -175c-21 0 -35 6 -66 4h-232c-26 0 -57 8 -57 39c0 26 17 36 28 49
c51 59 178 195 194 235c5 12 -22 16 -32 17c-64 0 -74 -6 -95 -37c-7 -11 -17 -19 -31 -19c-38 0 -47 40 -47 71c0 38 35 164 84 164c6 0 14 -2 20 -4c24 -8 47 -7 73 -7z" />
    <glyph glyph-name="braceleft" unicode="{" horiz-adv-x="566" 
d="M472 682l-32 -201c-11 -74 -34 -122 -116 -132v-3c60 -8 79 -37 79 -84c0 -14 -2 -30 -5 -48l-30 -191c-1 -7 -2 -14 -2 -20c0 -19 15 -28 38 -28c35 0 35 -27 35 -37c0 -11 -12 -37 -47 -37h-93c-77 0 -123 28 -123 112l38 247c1 7 1 14 1 21c0 22 -19 28 -37 28
c-35 0 -35 26 -35 38s12 39 47 39s46 17 51 48l36 229c15 101 74 141 164 141h93c35 0 35 -26 35 -37c0 -10 -12 -37 -47 -37s-45 -17 -50 -48z" />
    <glyph glyph-name="bar" unicode="|" horiz-adv-x="418" 
d="M190 -250v1000h116v-1000h-116z" />
    <glyph glyph-name="braceright" unicode="}" horiz-adv-x="566" 
d="M162 21l32 201c11 74 34 122 116 132v3c-60 8 -79 37 -79 84c0 14 2 30 5 48l30 191c1 7 2 14 2 20c0 19 -15 28 -38 28c-35 0 -35 27 -35 37c0 11 12 37 47 37h93c77 0 123 -28 123 -112l-38 -247c-1 -7 -1 -14 -1 -21c0 -22 19 -28 37 -28c35 0 35 -26 35 -38
s-12 -39 -47 -39s-46 -17 -51 -48l-36 -229c-15 -101 -74 -141 -164 -141h-93c-35 0 -35 26 -35 37c0 10 12 37 47 37s45 17 50 48z" />
    <glyph glyph-name="asciitilde" unicode="~" 
d="M469 348c47 0 88 -7 88 -65c0 -64 -52 -119 -113 -119c-79 0 -182 67 -221 67c-12 0 -12 -6 -12 -17c0 -37 -25 -50 -50 -50c-47 0 -88 7 -88 65c0 64 52 119 113 119c79 0 182 -67 221 -67c12 0 12 6 12 17c0 37 25 50 50 50z" />
    <glyph glyph-name="exclamdown" unicode="&#xa1;" horiz-adv-x="335" 
d="M230 517c61 0 112 -44 109 -111c-3 -70 -58 -117 -119 -117s-112 47 -109 117c3 67 58 111 119 111zM157 -212c-70 0 -113 37 -112 108c2 103 56 208 103 295c10 19 29 44 54 44c27 0 38 -25 46 -47c31 -80 48 -184 48 -270c0 -88 -52 -130 -139 -130z" />
    <glyph glyph-name="cent" unicode="&#xa2;" 
d="M364 30c-10 -52 -7 -47 -64 -47c-32 0 -58 -2 -58 20c0 8 6 29 6 38c0 14 -19 13 -28 13c-93 10 -147 90 -147 179c0 136 99 271 247 319c21 7 16 7 23 51c4 21 6 34 26 34c15 0 18 2 35 0c28 -3 58 6 58 -20c0 -16 -7 -32 -7 -49c0 -8 9 -9 15 -10
c64 -14 108 -55 108 -122c0 -64 -48 -120 -113 -120c-35 0 -74 22 -74 61c0 25 17 48 17 63c0 10 -7 18 -17 18c-25 0 -43 -32 -51 -51c-19 -43 -63 -233 26 -233c59 0 109 55 143 55c27 0 39 -31 39 -53c0 -55 -122 -106 -162 -115c-22 -6 -18 -5 -22 -31z" />
    <glyph glyph-name="sterling" unicode="&#xa3;" 
d="M400 288h-23c-19 0 -28 0 -33 -5c-6 -5 -7 -15 -13 -39c-5 -21 -13 -36 -23 -53c-2 -3 -5 -9 -5 -13c0 -22 104 -36 119 -36c91 0 41 113 121 113c29 0 45 -17 43 -51c-6 -94 -70 -204 -171 -204c-84 0 -176 53 -198 53c-18 0 -46 -49 -110 -49c-47 0 -97 30 -99 94
c-1 55 44 100 96 99c17 0 34 -6 50 -6c28 0 10 84 9 89c-3 15 -53 9 -61 9c-30 0 -42 7 -42 44c0 45 18 46 50 46c17 0 38 -7 38 20c0 19 -5 37 -5 56c0 149 124 212 234 212c78 0 198 -39 198 -152c0 -49 -35 -82 -75 -82c-27 0 -73 22 -65 58c7 31 19 83 -35 83
c-42 0 -64 -38 -65 -84c0 -29 5 -73 11 -94c4 -22 16 -18 33 -18c39 3 56 0 56 -43c0 -33 -5 -46 -35 -47z" />
    <glyph glyph-name="fraction" unicode="&#x2044;" horiz-adv-x="133" 
d="M7 213l233 405c15 31 26 44 61 44c15 0 48 -2 48 -23c0 -22 -29 -60 -41 -77l-90 -146l-190 -323l-55 -102c-12 -25 -22 -48 -53 -48c-15 0 -59 4 -59 25c0 10 5 20 11 28l46 72l45 71z" />
    <glyph glyph-name="yen" unicode="&#xa5;" 
d="M471 344h88c29 0 35 -9 35 -41c0 -49 -7 -49 -52 -49h-69c-12 0 -54 -1 -63 -12c-8 -10 -9 -35 -9 -72c0 -45 -10 -61 23 -72c19 -6 36 -13 36 -39c0 -64 -132 -59 -169 -59c-34 0 -160 -6 -157 54c0 30 21 38 44 43c9 2 17 5 22 15c7 13 20 84 20 102
c0 36 -23 40 -50 40h-35c-13 0 -45 0 -59 2c-22 2 -22 18 -22 40c0 25 0 48 28 48h92c10 2 31 1 31 18c0 16 -32 67 -41 82l-40 67c-12 19 -12 20 -30 28c-21 9 -40 15 -40 44c0 67 176 60 194 60s119 5 119 -53c0 -37 -37 -36 -37 -58c0 -15 28 -87 45 -87
c12 0 62 82 62 93c0 19 -27 25 -27 55c0 50 84 53 128 53c23 0 101 4 101 -49c0 -30 -20 -37 -42 -43c-14 -3 -21 -5 -32 -16c-16 -17 -34 -43 -49 -63c-10 -13 -77 -96 -77 -115c0 -18 21 -16 32 -16z" />
    <glyph glyph-name="florin" unicode="&#x192;" 
d="M431 432h20c12 0 43 1 54 -1c7 -1 9 -5 8 -12c-12 -54 -13 -77 -63 -77c-12 0 -39 3 -51 -4c-23 -18 -32 -59 -38 -83l-52 -186c-39 -153 -110 -244 -282 -244c-65 0 -193 16 -193 103c0 48 35 81 83 81c60 0 85 -63 121 -63c41 0 56 67 65 97l48 170c5 16 26 90 26 109
s-8 21 -25 22c-18 0 -29 1 -29 18c0 14 8 39 14 52c9 21 14 19 42 17c22 0 27 5 34 25c48 132 113 201 262 201c68 0 197 -12 197 -104c0 -42 -34 -75 -76 -75c-72 0 -86 64 -122 64c-38 0 -64 -76 -64 -103c0 -9 15 -7 21 -7z" />
    <glyph glyph-name="section" unicode="&#xa7;" horiz-adv-x="725" 
d="M655 112c0 -72 -42 -126 -102 -162c-62 -36 -133 -44 -193 -45c-119 -3 -301 27 -314 130c-5 38 83 49 110 49c17 0 34 -5 45 -18c35 -47 70 -71 131 -71c33 0 88 10 88 53c0 37 -44 49 -72 58c-102 32 -265 50 -265 190c0 120 116 159 116 172c0 15 -74 35 -74 133
c0 158 194 196 316 196c54 0 266 -18 266 -103c0 -37 -73 -61 -102 -61c-13 0 -28 3 -37 13c-36 39 -66 61 -122 61c-29 0 -78 -13 -78 -49c0 -43 59 -55 92 -63c93 -24 239 -47 231 -178c-8 -128 -114 -152 -117 -171c-3 -18 81 -32 81 -134zM337 312l75 -23
c45 -21 62 50 62 60c0 35 -29 45 -55 52c-31 9 -86 27 -94 27c-23 0 -45 -44 -45 -64c0 -35 29 -43 57 -52z" />
    <glyph glyph-name="currency" unicode="&#xa4;" 
d="M175 516c35 21 82 36 126 36c47 0 94 -13 129 -36c18 18 30 32 42 32c27 0 72 -49 72 -72c-1 -13 -14 -24 -32 -42c25 -39 38 -81 38 -129c0 -45 -12 -92 -38 -128c18 -18 31 -29 32 -42c0 -25 -47 -72 -72 -72c-13 1 -25 14 -42 32c-35 -22 -78 -37 -124 -37
c-48 0 -94 13 -131 37c-18 -18 -30 -32 -42 -32c-27 0 -72 49 -72 72c1 13 14 24 32 42c-24 42 -37 76 -37 127c0 49 12 90 37 130c-18 18 -31 29 -32 42c0 25 47 72 72 72c13 -1 25 -14 42 -32zM303 182c70 0 123 58 123 123s-53 123 -123 123s-123 -58 -123 -123
s53 -123 123 -123z" />
    <glyph glyph-name="quotesingle" unicode="'" horiz-adv-x="306" 
d="M219 715c77 0 97 -71 97 -118c0 -100 -89 -268 -130 -268c-39 0 -88 145 -88 223c0 91 45 163 121 163z" />
    <glyph glyph-name="quotedblleft" unicode="&#x201c;" horiz-adv-x="566" 
d="M240 550c0 -40 76 -27 76 -127c0 -67 -40 -108 -107 -108c-81 0 -118 60 -119 135c-2 109 111 265 159 265c18 0 51 -30 51 -48c0 -9 -5 -17 -10 -23c-17 -22 -50 -64 -50 -94zM501 550c0 -40 76 -27 76 -127c0 -67 -40 -108 -107 -108c-81 0 -118 60 -119 135
c-2 109 111 265 159 265c18 0 51 -30 51 -48c0 -9 -5 -17 -10 -23c-17 -22 -50 -64 -50 -94z" />
    <glyph glyph-name="guillemotleft" unicode="&#xab;" horiz-adv-x="566" 
d="M540 495c20 0 40 -20 40 -39c0 -51 -120 -131 -120 -184c0 -46 67 -134 67 -180c0 -24 -23 -40 -46 -40c-55 0 -189 183 -189 235c0 69 185 208 248 208zM288 495c20 0 40 -20 40 -39c0 -51 -120 -131 -120 -184c0 -46 67 -134 67 -180c0 -24 -23 -40 -46 -40
c-55 0 -189 183 -189 235c0 69 185 208 248 208z" />
    <glyph glyph-name="guilsinglleft" unicode="&#x2039;" horiz-adv-x="306" 
d="M290 495c20 0 40 -20 40 -39c0 -51 -120 -131 -120 -184c0 -46 67 -134 67 -180c0 -24 -23 -40 -46 -40c-55 0 -189 183 -189 235c0 69 185 208 248 208z" />
    <glyph glyph-name="guilsinglright" unicode="&#x203a;" horiz-adv-x="306" 
d="M67 52c-20 0 -40 20 -40 39c0 51 120 131 120 184c0 46 -67 134 -67 180c0 24 23 40 46 40c55 0 189 -183 189 -235c0 -69 -185 -208 -248 -208z" />
    <glyph glyph-name="fi" unicode="&#xfb01;" horiz-adv-x="778" 
d="M486 114l26 170c4 23 9 42 9 55s-5 20 -22 20c-15 0 -39 -1 -39 35c0 43 46 62 79 76c47 20 123 42 174 42c31 0 45 -16 45 -46c0 -43 -15 -128 -17 -142c-2 -11 -20 -126 -25 -165c-2 -19 11 -19 27 -19c19 0 33 -1 33 -25c0 -76 -158 -122 -215 -122
c-38 0 -81 23 -81 65c0 19 3 37 6 56zM589 553c-34 2 -89 11 -89 55c0 80 143 121 207 121c36 0 84 -14 83 -57c-1 -73 -141 -123 -201 -119zM429 385l-3 -45c-1 -28 1 -33 -27 -33c-30 -1 -31 -9 -36 -38l-39 -308c0 -40 6 -74 -31 -99c-33 -23 -112 -41 -151 -41
c-38 0 -92 14 -92 60c0 17 7 27 18 37c25 23 21 32 29 67c18 77 47 221 47 298c0 30 -25 25 -47 25c-33 0 -40 2 -40 19c0 6 1 18 2 30l3 33c3 18 0 30 22 29c24 0 51 -5 51 12c0 22 -45 39 -45 118c0 111 114 168 212 168c63 0 138 -33 138 -106c0 -47 -31 -87 -80 -87
c-38 0 -59 16 -86 39c-10 8 -24 23 -38 23c-16 0 -26 -14 -26 -28c0 -25 22 -43 45 -49c44 -12 95 -27 113 -74c7 -19 7 -16 29 -16c33 0 35 2 32 -34z" />
    <glyph glyph-name="fl" unicode="&#xfb02;" horiz-adv-x="808" 
d="M789 667l-53 -484c0 -12 1 -35 17 -35c10 0 20 3 30 3c17 0 22 -17 22 -31c0 -83 -163 -127 -228 -127c-54 0 -87 25 -81 97c14 162 45 346 58 463c2 16 -2 24 -19 24c-8 0 -16 -2 -24 -2c-20 0 -31 9 -31 29c0 50 46 66 86 79c49 16 115 32 166 32c35 0 57 -9 57 -48z
M429 385l-3 -45c-1 -28 1 -33 -27 -33c-30 -1 -31 -9 -36 -38l-39 -308c0 -40 6 -74 -31 -99c-33 -23 -112 -41 -151 -41c-38 0 -92 14 -92 60c0 17 7 27 18 37c25 23 21 32 29 67c18 77 47 221 47 298c0 30 -25 25 -47 25c-33 0 -40 2 -40 19c0 6 1 18 2 30l3 33
c3 18 0 30 22 29c24 0 51 -5 51 12c0 22 -45 39 -45 118c0 111 114 168 212 168c63 0 138 -33 138 -106c0 -47 -31 -87 -80 -87c-38 0 -59 16 -86 39c-10 8 -24 23 -38 23c-16 0 -26 -14 -26 -28c0 -25 22 -43 45 -49c44 -12 95 -27 113 -74c7 -19 7 -16 29 -16
c33 0 35 2 32 -34z" />
    <glyph glyph-name="endash" unicode="&#x2013;" horiz-adv-x="500" 
d="M292 362h118c27 0 56 -2 83 2c6 1 13 2 19 2c16 0 29 -12 29 -28c0 -40 -22 -107 -47 -140c-10 -13 -22 -21 -35 -21c-40 -1 -62 4 -136 9c-145 4 -282 0 -328 -5c-18 0 -36 10 -36 30c0 19 30 100 40 118c12 25 25 42 54 42c52 -4 105 -6 239 -9z" />
    <glyph glyph-name="dagger" unicode="&#x2020;" horiz-adv-x="725" 
d="M487 327l-28 -215c-6 -139 58 -99 58 -150c0 -53 -148 -58 -179 -58c-29 0 -163 3 -163 52c0 25 24 37 42 49c50 32 61 98 67 153l28 199c0 9 -4 12 -12 12l-61 -3c-45 -3 -61 -2 -84 -44c-13 -25 -20 -34 -48 -34c-49 0 -43 96 -43 129c0 43 25 188 87 188
c24 0 27 -10 34 -32c12 -37 25 -41 63 -43c24 -1 48 -4 72 -4c18 0 14 15 16 31l12 85c3 66 -60 43 -60 79c0 62 135 76 176 76c39 0 154 -10 154 -68c0 -25 -22 -29 -43 -38c-40 -15 -39 -44 -45 -81l-10 -74c0 -10 9 -10 17 -10c23 0 46 3 69 4c39 2 52 6 73 42
c11 18 20 33 42 33c51 0 45 -86 45 -122c0 -46 -27 -195 -91 -195c-26 0 -30 7 -36 33c-13 44 -30 42 -74 45l-62 3c-17 0 -14 -33 -16 -42z" />
    <glyph glyph-name="daggerdbl" unicode="&#x2021;" horiz-adv-x="725" 
d="M504 413l-20 -136c-2 -16 36 -12 53 -13h50c25 0 33 2 51 20c14 14 27 29 47 29c45 0 49 -59 49 -93c0 -39 -25 -139 -78 -139c-19 0 -28 19 -36 33c-30 54 -36 50 -111 50c-9 0 -36 6 -39 -10l-7 -58c-4 -35 -8 -61 25 -81c14 -9 29 -15 29 -35c0 -57 -137 -76 -176 -76
c-35 0 -155 17 -155 68c0 25 21 32 41 42c37 20 40 44 46 81l9 58c6 19 -70 10 -103 8c-46 -3 -67 -80 -104 -80c-44 0 -44 68 -44 99c0 43 24 133 81 133c40 0 27 -49 82 -49h44c9 0 54 -1 60 5c7 5 7 26 8 33l15 103c1 8 5 21 -1 27c-7 6 -65 3 -74 4
c-91 14 -79 -49 -124 -48c-46 1 -48 59 -48 93c0 39 23 139 77 139c19 0 27 -19 36 -33c30 -53 32 -50 112 -50c8 0 36 -4 36 6c0 3 36 122 -15 143c-16 7 -30 15 -30 35c0 57 138 76 177 76c35 0 155 -17 155 -68c0 -25 -22 -32 -41 -42c-37 -20 -41 -44 -47 -81l-8 -59
c-1 -22 102 -8 108 -6c41 11 63 79 98 79c44 0 43 -69 43 -99c0 -43 -23 -133 -81 -133c-39 0 -26 49 -80 48h-42c-8 0 -55 1 -61 -3c-7 -4 -6 -13 -7 -20z" />
    <glyph glyph-name="periodcentered" unicode="&#xb7;" horiz-adv-x="295" 
d="M160 397c61 0 112 -44 109 -111c-3 -70 -58 -117 -119 -117s-112 47 -109 117c3 67 58 111 119 111z" />
    <glyph glyph-name="paragraph" unicode="&#xb6;" horiz-adv-x="630" 
d="M464 577l-101 -713c-5 -41 -3 -49 -48 -49c-12 0 -31 -2 -31 15c0 8 2 21 3 29l53 381c2 14 6 30 6 44c0 26 -41 16 -84 16c-106 0 -194 49 -194 166c0 135 118 236 249 236c72 0 143 -17 215 -15c38 1 100 1 148 7c23 3 42 -6 42 -33c0 -35 -29 -44 -57 -54
c-57 -20 -55 -26 -64 -81l-2 -23l-90 -636c-5 -37 -1 -52 -43 -52c-21 0 -40 -3 -36 26l96 683c3 20 9 44 9 65c0 19 -27 16 -40 16c-23 0 -28 -4 -31 -28zM368 436l18 126c3 28 13 48 -12 48c-54 0 -109 -63 -109 -116c0 -88 53 -110 75 -110c28 0 25 31 28 52z" />
    <glyph glyph-name="bullet" unicode="&#x2022;" horiz-adv-x="725" 
d="M412 525c97 0 175 -78 175 -175s-78 -175 -175 -175s-175 78 -175 175s78 175 175 175z" />
    <glyph glyph-name="quotesinglbase" unicode="&#x201a;" horiz-adv-x="306" 
d="M118 -22c0 40 -76 27 -76 127c0 67 40 108 107 108c81 0 118 -60 119 -135c2 -109 -111 -265 -159 -265c-18 0 -51 30 -51 48c0 9 5 17 10 23c17 22 50 64 50 94z" />
    <glyph glyph-name="quotedblbase" unicode="&#x201e;" horiz-adv-x="566" 
d="M379 -22c0 40 -76 27 -76 127c0 67 40 108 107 108c81 0 118 -60 119 -135c2 -109 -111 -265 -159 -265c-18 0 -51 30 -51 48c0 9 5 17 10 23c17 22 50 64 50 94zM118 -22c0 40 -76 27 -76 127c0 67 40 108 107 108c81 0 118 -60 119 -135c2 -109 -111 -265 -159 -265
c-18 0 -51 30 -51 48c0 9 5 17 10 23c17 22 50 64 50 94z" />
    <glyph glyph-name="quotedblright" unicode="&#x201d;" horiz-adv-x="566" 
d="M442 480c0 40 -76 27 -76 127c0 67 40 108 107 108c81 0 118 -60 119 -135c2 -109 -111 -265 -159 -265c-18 0 -51 30 -51 48c0 9 5 17 10 23c17 22 50 64 50 94zM181 480c0 40 -76 27 -76 127c0 67 40 108 107 108c81 0 118 -60 119 -135c2 -109 -111 -265 -159 -265
c-18 0 -51 30 -51 48c0 9 5 17 10 23c17 22 50 64 50 94z" />
    <glyph glyph-name="guillemotright" unicode="&#xbb;" horiz-adv-x="566" 
d="M70 52c-20 0 -40 20 -40 39c0 51 120 131 120 184c0 46 -67 134 -67 180c0 24 23 40 46 40c55 0 189 -183 189 -235c0 -69 -185 -208 -248 -208zM322 52c-20 0 -40 20 -40 39c0 51 120 131 120 184c0 46 -67 134 -67 180c0 24 23 40 46 40c55 0 189 -183 189 -235
c0 -69 -185 -208 -248 -208z" />
    <glyph glyph-name="ellipsis" unicode="&#x2026;" horiz-adv-x="1000" 
d="M176 207c61 0 112 -44 109 -111c-3 -70 -58 -117 -119 -117s-112 47 -109 117c3 67 58 111 119 111zM509 207c61 0 112 -44 109 -111c-3 -70 -58 -117 -119 -117s-112 47 -109 117c3 67 58 111 119 111zM842 207c61 0 112 -44 109 -111c-3 -70 -58 -117 -119 -117
s-112 47 -109 117c3 67 58 111 119 111z" />
    <glyph glyph-name="perthousand" unicode="&#x2030;" horiz-adv-x="1187" 
d="M605 615c-111 -185 -239 -383 -336 -571c-13 -25 -21 -49 -53 -49c-15 0 -59 5 -59 26c0 10 6 19 11 27l46 72c118 184 215 367 322 551c16 31 26 44 61 44c15 0 48 -2 48 -23c0 -22 -30 -60 -40 -77zM983 67c26 0 32 33 36 53c7 31 18 93 18 125c0 16 -3 37 -23 37
s-28 -22 -33 -38c-11 -38 -20 -108 -20 -146c0 -15 4 -31 22 -31zM206 428c26 0 32 33 36 53c7 31 18 93 18 125c0 16 -3 37 -23 37s-28 -22 -33 -38c-11 -38 -20 -108 -20 -146c0 -15 4 -31 22 -31zM961 -5c-83 0 -157 42 -157 134c0 132 103 225 232 225
c83 0 158 -42 158 -134c0 -132 -104 -225 -233 -225zM184 356c-83 0 -157 42 -157 134c0 132 103 225 232 225c83 0 158 -42 158 -134c0 -132 -104 -225 -233 -225zM544 -5c-83 0 -157 42 -157 134c0 132 103 225 232 225c83 0 158 -42 158 -134c0 -132 -104 -225 -233 -225
zM566 67c26 0 32 33 36 53c7 31 18 93 18 125c0 16 -3 37 -23 37s-28 -22 -33 -38c-11 -38 -20 -108 -20 -146c0 -15 4 -31 22 -31z" />
    <glyph glyph-name="questiondown" unicode="&#xbf;" horiz-adv-x="487" 
d="M332 -23c15 40 31 78 82 78c36 0 59 -21 59 -58c0 -134 -185 -212 -296 -210c-84 2 -170 43 -170 138c0 91 73 147 151 179c26 12 68 24 68 59c0 11 -8 21 -8 31c0 34 62 45 87 45c33 0 60 -18 60 -54c0 -92 -113 -156 -113 -232c0 -15 7 -31 24 -31c34 0 45 28 56 55z
M321 517c61 0 112 -44 109 -111c-3 -70 -58 -117 -119 -117s-112 47 -109 117c3 67 58 111 119 111z" />
    <glyph glyph-name="grave" unicode="`" horiz-adv-x="397" 
d="M320 643c12 -13 28 -25 28 -44c0 -23 -19 -35 -40 -35c-65 0 -217 69 -217 145c0 38 65 45 93 45c24 0 116 -11 116 -44c0 -6 -3 -10 -6 -16c-2 -4 -4 -6 -4 -11c0 -14 22 -32 30 -40z" />
    <glyph glyph-name="acute" unicode="&#xb4;" horiz-adv-x="397" 
d="M198 643c9 8 30 26 30 40c0 5 -1 7 -3 11c-3 6 -6 10 -6 16c0 33 92 44 116 44c28 0 93 -7 93 -45c0 -76 -152 -145 -217 -145c-21 0 -40 12 -40 35c0 19 15 31 27 44z" />
    <glyph glyph-name="circumflex" unicode="&#x2c6;" horiz-adv-x="513" 
d="M275 600c-18 -9 -67 -39 -88 -39c-24 0 -46 18 -46 42c0 32 35 56 59 69c29 17 133 85 159 85c40 0 155 -109 155 -151c0 -25 -18 -47 -43 -47c-46 0 -83 72 -122 72c-22 0 -56 -21 -74 -31z" />
    <glyph glyph-name="tilde" unicode="&#x2dc;" horiz-adv-x="570" 
d="M448 698c3 33 33 45 63 45c39 0 62 -16 62 -57c0 -61 -41 -116 -106 -116c-59 0 -160 64 -200 64c-10 0 -10 -8 -11 -17c0 -12 1 -22 -10 -31c-10 -9 -27 -13 -41 -13c-36 0 -62 16 -62 54c0 71 44 115 115 115c76 0 154 -58 181 -58c9 0 9 7 9 14z" />
    <glyph glyph-name="macron" unicode="&#xaf;" horiz-adv-x="614" 
d="M145 588h-14c-12 0 -28 6 -28 21s27 76 35 89c11 18 21 26 41 26l18 -1l112 -5l229 1l16 2c11 0 23 -9 23 -21c0 -20 -19 -68 -28 -86c-9 -16 -18 -30 -38 -30c-9 0 -16 1 -24 2l-85 5z" />
    <glyph glyph-name="breve" unicode="&#x2d8;" horiz-adv-x="562" 
d="M149 733c46 -31 83 -46 140 -46c64 0 101 14 157 42c13 7 33 18 49 18c9 0 18 -8 18 -19c0 -24 -33 -66 -48 -81c-49 -50 -110 -80 -181 -80c-56 0 -102 17 -142 57c-21 22 -51 63 -51 96c0 14 6 28 23 28c14 0 23 -7 35 -15z" />
    <glyph glyph-name="dotaccent" unicode="&#x2d9;" horiz-adv-x="430" 
d="M180 570c-34 0 -89 11 -89 55c0 80 143 122 207 122c35 0 83 -14 83 -58c0 -32 -33 -62 -59 -77c-40 -25 -94 -42 -142 -42z" />
    <glyph glyph-name="dieresis" unicode="&#xa8;" horiz-adv-x="690" 
d="M538 582c-30 0 -77 9 -77 47c0 71 127 104 183 104c29 0 67 -15 67 -49c0 -28 -28 -52 -49 -66c-35 -22 -83 -36 -124 -36zM237 582c-29 0 -76 9 -76 47c0 71 127 104 182 104c30 0 68 -15 68 -49c0 -28 -28 -52 -49 -66c-35 -22 -83 -36 -125 -36z" />
    <glyph glyph-name="ring" unicode="&#x2da;" horiz-adv-x="446" 
d="M335 765c66 0 142 -18 142 -98c0 -88 -81 -115 -155 -115c-68 0 -151 15 -151 99c0 32 15 64 41 83c35 26 80 31 123 31zM334 718c-39 0 -59 -33 -59 -69c0 -26 19 -43 45 -43c39 0 59 30 59 67c0 28 -17 45 -45 45z" />
    <glyph glyph-name="cedilla" unicode="&#xb8;" horiz-adv-x="322" 
d="M145 -15h66l26 -50c13 -25 36 -63 36 -91c0 -47 -63 -58 -99 -58c-31 0 -83 11 -83 51c0 27 30 42 52 46c13 2 29 4 29 20c0 12 -3 19 -7 29l-11 30z" />
    <glyph glyph-name="hungarumlaut" unicode="&#x2dd;" horiz-adv-x="653" 
d="M118 642c9 9 30 27 30 41c0 5 -1 6 -3 11c-3 6 -6 10 -6 16c0 32 92 43 116 43c28 0 93 -6 93 -45c0 -76 -152 -144 -217 -144c-21 0 -40 12 -40 35c0 18 15 31 27 43zM375 642c8 9 30 27 30 41c0 5 -1 6 -4 11c-3 6 -5 10 -5 16c0 32 92 43 116 43c28 0 92 -6 92 -45
c0 -76 -151 -144 -216 -144c-22 0 -40 12 -40 35c0 18 15 31 27 43z" />
    <glyph glyph-name="ogonek" unicode="&#x2db;" horiz-adv-x="333" 
d="M200 -18l-11 -30c-4 -11 -8 -22 -8 -35c0 -20 18 -29 37 -29c10 0 14 1 24 4c7 1 14 4 22 4c11 0 20 -9 20 -20c0 -15 -13 -36 -23 -46c-21 -22 -50 -34 -79 -34c-43 0 -91 25 -91 73c0 39 25 82 47 113h62z" />
    <glyph glyph-name="caron" unicode="&#x2c7;" horiz-adv-x="513" 
d="M410 716c19 10 67 39 89 39c24 0 45 -17 45 -42c0 -31 -35 -55 -59 -69c-29 -16 -133 -85 -159 -85c-40 0 -155 110 -155 152c0 24 18 46 43 46c47 0 83 -72 123 -72c21 0 55 22 73 31z" />
    <glyph glyph-name="emdash" unicode="&#x2014;" horiz-adv-x="1000" 
d="M291 362h618c51 0 81 4 102 4c16 0 30 -12 30 -28c0 -28 -31 -162 -82 -162c-30 2 -92 6 -136 8h-813c-15 -2 -60 -2 -50 27c10 33 33 169 93 160c32 -5 108 -7 238 -9z" />
    <glyph glyph-name="AE" unicode="&#xc6;" horiz-adv-x="1069" 
d="M434 376l-28 -36c-6 -8 -23 -27 -23 -39c0 -27 37 -20 55 -20c37 0 52 -1 60 39l16 84c1 7 3 16 3 23c0 10 -6 16 -16 16c-19 0 -57 -55 -67 -67zM411 158h-69c-31 0 -74 5 -74 -40c0 -27 24 -33 24 -68c0 -55 -57 -58 -98 -58h-97c-44 0 -118 -4 -118 58
c0 58 41 36 93 89c82 83 256 299 319 382c56 73 73 100 73 121c0 54 56 59 98 59h314c36 0 58 3 73 6s24 6 34 6c34 0 84 -55 84 -149c0 -37 -18 -77 -60 -77c-81 0 -35 99 -154 99c-81 0 -87 -11 -93 -67l-6 -57c-3 -39 -11 -47 22 -47c59 0 25 92 87 92
c61 0 67 -80 67 -125c0 -53 -18 -183 -88 -183c-74 0 -16 101 -78 101c-26 0 -31 -28 -31 -80v-44c0 -63 1 -61 67 -61c156 0 120 129 201 129c48 0 60 -39 60 -80c0 -93 -69 -171 -106 -171c-6 0 -12 2 -23 4c-12 1 -29 3 -61 3h-200c-32 0 -65 -1 -98 -3
c-33 -1 -65 -3 -98 -3c-46 0 -95 1 -95 60c0 73 78 44 78 87c0 22 -33 17 -47 17z" />
    <glyph glyph-name="ordfeminine" unicode="&#xaa;" horiz-adv-x="410" 
d="M397 691c0 -40 -18 -107 -18 -162c0 -13 -1 -21 12 -22c10 0 17 -6 17 -16c0 -39 -86 -71 -117 -71c-52 0 -32 47 -45 47c-11 0 -43 -50 -102 -50c-53 0 -76 45 -76 93c0 46 23 107 53 142c26 31 70 63 112 63c37 0 53 -23 68 -23c13 0 40 23 71 23c17 0 25 -6 25 -24z
M213 510c27 5 64 87 63 122c0 6 -2 19 -10 16c-31 -10 -63 -80 -63 -121c0 -7 2 -19 10 -17z" />
    <glyph glyph-name="Lslash" unicode="&#x141;" horiz-adv-x="657" 
d="M503 0h-328c-3 0 -15 -1 -32 -1c-16 -1 -37 -2 -58 -2c-38 0 -71 15 -71 59c0 60 57 34 82 95c9 22 18 65 24 106l-30 -11c-6 -2 -55 -25 -61 -25s-8 2 -8 8c0 5 3 21 4 28c5 35 18 36 47 49l58 25c8 71 23 179 23 228c0 43 -72 24 -72 81c0 58 73 69 263 69
c126 0 146 -24 146 -61c0 -90 -91 12 -105 -153l-8 -87l162 71c5 2 11 5 16 5c14 0 8 -23 8 -31c-4 -42 -18 -39 -54 -55l-138 -62l-10 -134c-1 -9 -2 -21 -2 -30c0 -37 -2 -51 86 -51c127 0 105 122 178 122c43 0 60 -28 60 -69c0 -53 -35 -185 -103 -185
c-18 0 -27 3 -36 6c-10 2 -20 5 -41 5z" />
    <glyph glyph-name="Oslash" unicode="&#xd8;" horiz-adv-x="752" 
d="M508 392l-197 -166c4 -4 -2 -111 62 -111c94 0 120 179 135 277zM786 614l-41 -32c24 -46 35 -107 34 -141c0 -249 -195 -455 -440 -455c-75 0 -163 22 -224 81l-24 -20c-11 -10 -40 -38 -57 -38c-14 0 -31 18 -31 31c0 18 40 45 51 54l25 20c-27 45 -36 102 -36 146
c0 249 195 455 440 455c76 0 175 -23 227 -87l24 19c10 9 38 35 53 35c14 0 31 -17 31 -31c0 -15 -22 -29 -32 -37zM315 306l195 166c-1 45 -5 114 -64 114c-91 0 -129 -206 -131 -280z" />
    <glyph glyph-name="OE" unicode="&#x152;" horiz-adv-x="1049" 
d="M743 519l-6 -57c-3 -39 -11 -47 22 -47c59 0 25 92 87 92c61 0 67 -80 67 -125c0 -53 -18 -183 -88 -183c-74 0 -16 101 -78 101c-26 0 -31 -28 -31 -80v-44c0 -63 1 -61 67 -61c156 0 120 129 201 129c48 0 60 -39 60 -80c0 -93 -69 -171 -106 -171c-6 0 -12 2 -23 4
c-12 1 -29 3 -61 3h-197c-88 0 -157 -3 -209 -7c-52 -3 -87 -7 -109 -7c-182 0 -295 93 -295 281c0 238 199 448 439 448c25 0 63 -3 99 -7c36 -3 70 -7 85 -7h192c72 0 87 12 107 12c34 0 84 -55 84 -149c0 -37 -18 -77 -60 -77c-81 0 -35 99 -154 99
c-81 0 -87 -11 -93 -67zM448 581c-122 0 -133 -321 -133 -359c0 -43 5 -121 63 -121c113 0 130 275 130 356c0 38 -4 124 -60 124z" />
    <glyph glyph-name="ordmasculine" unicode="&#xba;" horiz-adv-x="410" 
d="M220 417c-71 0 -137 33 -137 113c0 110 96 188 198 188c71 0 137 -33 137 -113c0 -110 -96 -188 -198 -188zM237 483c20 0 25 26 28 41c6 28 15 77 15 105c0 12 -2 25 -16 25c-21 0 -27 -29 -30 -44c-7 -31 -13 -73 -13 -105c0 -11 3 -22 16 -22z" />
    <glyph glyph-name="ae" unicode="&#xe6;" horiz-adv-x="890" 
d="M638 265c36 0 72 94 72 123c0 17 -7 30 -25 30c-41 0 -67 -89 -67 -120c0 -13 3 -33 20 -33zM904 398c0 -121 -135 -215 -248 -215c-14 0 -39 0 -39 -21c0 -29 36 -45 61 -45c72 0 127 57 159 57c21 0 40 -22 40 -42c0 -53 -67 -86 -108 -105c-56 -25 -110 -40 -173 -40
c-77 0 -122 16 -172 72c-9 10 -29 38 -44 38c-29 0 -100 -110 -205 -110c-92 0 -130 81 -126 162c8 180 120 348 274 362c70 7 98 -41 127 -41c32 3 80 47 117 47c38 0 27 -31 44 -31c2 0 5 1 7 2c44 17 90 29 146 29c74 0 140 -36 140 -119zM295 144c53 4 118 174 116 224
c0 13 -4 33 -20 32c-53 -4 -120 -153 -119 -217c0 -15 3 -41 23 -39z" />
    <glyph glyph-name="dotlessi" unicode="&#x131;" horiz-adv-x="370" 
d="M330 293l-12 -80c-2 -13 -8 -42 -8 -54c0 -19 11 -19 27 -19c19 0 33 -1 33 -25c0 -37 -34 -60 -63 -77c-45 -27 -99 -45 -152 -45c-38 0 -81 23 -81 65c0 19 3 37 6 56l26 170c2 13 8 42 8 54c0 16 -5 21 -21 21c-8 0 -19 -2 -26 4c-8 7 -13 21 -13 31c0 43 46 62 79 76
c47 20 123 42 174 42c31 0 45 -16 45 -46c0 -43 -15 -128 -22 -173z" />
    <glyph glyph-name="lslash" unicode="&#x142;" horiz-adv-x="376" 
d="M333 422l22 9c11 5 54 25 63 25c8 0 9 -5 9 -11c0 -7 -1 -13 -2 -20c-5 -43 -15 -38 -53 -55l-48 -20l-18 -167c0 -12 1 -35 17 -35c10 0 20 3 30 3c17 0 22 -17 22 -31c0 -83 -163 -127 -228 -127c-54 0 -82 20 -82 76c0 34 5 66 10 99l14 104l-25 -10l-24 -11
c-7 -3 -22 -11 -30 -11c-11 0 -9 12 -8 20l2 14c4 32 11 35 39 46l55 24l19 147c3 20 7 42 7 62c0 16 -2 24 -19 24c-8 0 -16 -2 -24 -2c-20 0 -31 9 -31 29c-3 91 216 109 252 111c35 2 57 -9 57 -48z" />
    <glyph glyph-name="oslash" unicode="&#xf8;" horiz-adv-x="611" 
d="M616 427l-27 -17c16 -22 22 -66 22 -91c0 -191 -150 -332 -340 -332c-48 0 -129 15 -175 63l-15 -12c-11 -7 -36 -29 -51 -29s-27 16 -27 30c0 17 28 33 40 41l21 15c-15 32 -21 69 -21 90c0 191 150 332 340 332c66 0 126 -17 178 -63l42 33c9 7 16 13 27 13
c14 0 26 -18 26 -30c0 -17 -28 -34 -40 -43zM282 251l100 82c0 30 9 78 -32 78c-53 0 -62 -123 -70 -158zM371 252l-100 -78c1 -24 -8 -81 32 -81c34 0 43 38 51 62z" />
    <glyph glyph-name="oe" unicode="&#x153;" horiz-adv-x="870" 
d="M355 411c-42 0 -52 -64 -59 -95c-11 -54 -20 -122 -20 -177c0 -23 6 -46 32 -46c42 0 50 60 56 90c10 51 24 128 24 179c0 23 -5 49 -33 49zM663 418c-41 0 -69 -93 -69 -125c0 -12 4 -28 18 -28c28 0 77 74 74 122c-1 13 -7 31 -23 31zM575 -13c-40 -1 -85 9 -126 26
c-4 2 -12 5 -17 5c-6 0 -14 -3 -20 -6c-39 -17 -92 -25 -136 -25c-125 0 -228 67 -228 198c0 191 150 332 340 332c42 0 116 -12 152 -35c3 -3 11 -8 15 -8c6 0 14 5 19 7c50 25 110 36 169 36c74 0 140 -36 140 -119c0 -121 -135 -215 -248 -215c-14 0 -39 0 -39 -21
c0 -29 36 -45 61 -45c72 0 127 57 159 57c21 0 40 -22 40 -42c0 -53 -67 -86 -108 -105c-56 -25 -110 -40 -173 -40z" />
    <glyph glyph-name="germandbls" unicode="&#xdf;" horiz-adv-x="690" 
d="M73 162l39 223c16 83 30 157 90 221c62 67 136 101 227 101c42 0 86 -7 123 -30c35 -22 61 -56 61 -99c0 -53 -33 -80 -33 -116c0 -56 113 -169 113 -287c0 -48 -12 -94 -48 -128c-38 -35 -90 -54 -141 -54c-41 0 -76 10 -104 41c-9 10 -29 34 -29 49c0 10 6 20 16 20
c5 0 7 -1 12 -3c33 -12 56 16 56 48c0 31 -10 59 -23 87l-31 67c-16 34 -26 62 -26 99c0 98 110 99 110 158c0 19 -14 37 -33 37c-45 0 -77 -46 -95 -81c-25 -48 -31 -102 -39 -154l-16 -117l-11 -113c0 -49 37 -40 37 -75c0 -65 -111 -64 -155 -64c-46 0 -158 -4 -158 65
c0 21 8 28 23 39c14 10 20 11 26 27c4 10 7 28 9 39z" />
    <glyph glyph-name="onesuperior" unicode="&#xb9;" horiz-adv-x="354" 
d="M138 381l7 71c-2 15 -8 34 -28 34c-7 0 -13 -3 -20 -6c-6 -2 -15 -7 -21 -7c-14 0 -18 15 -18 25c0 29 19 38 44 50c41 18 152 49 201 49c23 0 38 -5 38 -28c0 -15 -9 -23 -22 -31c-16 -9 -18 -11 -23 -30c-13 -54 -21 -110 -19 -165c1 -32 8 -35 41 -36
c21 -2 36 -2 36 -25c0 -51 -133 -46 -163 -46s-144 -11 -144 38c0 23 15 25 36 27c20 3 27 4 37 21c11 13 14 43 18 59z" />
    <glyph glyph-name="minus" unicode="&#x2212;" 
d="M492 198h-354c-45 0 -65 -5 -65 58s20 58 65 58h354c45 0 65 5 65 -58s-20 -58 -65 -58z" />
    <glyph glyph-name="degree" unicode="&#xb0;" horiz-adv-x="354" 
d="M339 500c0 -83 -68 -150 -150 -150c-83 0 -150 67 -150 150c-1 82 67 150 150 150c82 0 150 -68 150 -150zM189 580c-44 0 -81 -34 -80 -80c0 -45 36 -80 80 -80c46 0 80 35 80 80c0 46 -34 80 -80 80z" />
    <glyph glyph-name="oacute" unicode="&#xf3;" horiz-adv-x="611" 
d="M271 -13c-125 0 -228 67 -228 198c0 191 150 332 340 332c125 0 228 -67 228 -198c0 -191 -150 -332 -340 -332zM350 411c-42 0 -52 -64 -59 -95c-11 -54 -20 -122 -20 -177c0 -23 6 -46 32 -46c42 0 50 60 56 90c10 51 24 128 24 179c0 23 -5 49 -33 49zM305 643
c9 8 30 26 30 40c0 5 -1 7 -3 11c-3 6 -6 10 -6 16c0 33 92 44 116 44c28 0 93 -7 93 -45c0 -76 -152 -145 -217 -145c-21 0 -40 12 -40 35c0 19 15 31 27 44z" />
    <glyph glyph-name="Odieresis" unicode="&#xd6;" horiz-adv-x="752" 
d="M779 441c0 -249 -195 -455 -440 -455c-170 0 -296 97 -296 274c0 249 195 455 440 455c170 0 296 -97 296 -274zM376 115c107 0 134 267 134 344c0 39 -3 132 -64 127c-107 0 -134 -267 -134 -344c0 -39 3 -132 64 -127zM649 759c-30 0 -77 9 -77 47
c0 71 127 104 183 104c29 0 67 -15 67 -49c0 -28 -28 -52 -49 -66c-35 -22 -83 -36 -124 -36zM348 759c-29 0 -76 9 -76 47c0 71 127 104 182 104c30 0 68 -15 68 -49c0 -28 -28 -52 -49 -66c-35 -22 -83 -36 -125 -36z" />
    <glyph glyph-name="odieresis" unicode="&#xf6;" horiz-adv-x="611" 
d="M271 -13c-125 0 -228 67 -228 198c0 191 150 332 340 332c125 0 228 -67 228 -198c0 -191 -150 -332 -340 -332zM350 411c-42 0 -52 -64 -59 -95c-11 -54 -20 -122 -20 -177c0 -23 6 -46 32 -46c42 0 50 60 56 90c10 51 24 128 24 179c0 23 -5 49 -33 49zM499 582
c-30 0 -77 9 -77 47c0 71 127 104 183 104c29 0 67 -15 67 -49c0 -28 -28 -52 -49 -66c-35 -22 -83 -36 -124 -36zM198 582c-29 0 -76 9 -76 47c0 71 127 104 182 104c30 0 68 -15 68 -49c0 -28 -28 -52 -49 -66c-35 -22 -83 -36 -125 -36z" />
    <glyph glyph-name="Ecircumflex" unicode="&#xca;" horiz-adv-x="697" 
d="M501 0h-267c-45 0 -91 -9 -136 -9c-64 0 -84 26 -84 59c0 60 62 32 84 96c23 70 58 310 58 385c0 78 -62 49 -62 104c0 58 53 71 101 69c25 -1 50 -2 76 -2c26 -1 52 -1 78 -1h157c36 0 58 3 73 6s24 6 34 6c34 0 84 -55 84 -149c0 -37 -18 -77 -60 -77
c-81 0 -35 99 -154 99c-101 0 -88 -18 -99 -124c-3 -39 -11 -47 22 -47c59 0 25 92 87 92c61 0 67 -80 67 -125c0 -53 -18 -183 -88 -183c-74 0 -16 101 -78 101c-42 0 -31 -93 -31 -124c0 -63 1 -61 67 -61c156 0 120 129 201 129c48 0 60 -39 60 -80
c0 -93 -69 -171 -106 -171c-6 0 -12 2 -23 4c-12 1 -29 3 -61 3zM367 777c-18 -9 -67 -39 -88 -39c-24 0 -46 18 -46 42c0 32 35 56 59 69c29 17 133 85 159 85c40 0 155 -109 155 -151c0 -25 -18 -47 -43 -47c-46 0 -83 72 -122 72c-22 0 -56 -21 -74 -31z" />
    <glyph glyph-name="ucircumflex" unicode="&#xfb;" horiz-adv-x="681" 
d="M657 419l-34 -193c-3 -15 -6 -31 -6 -46c0 -22 11 -30 31 -30c23 -1 35 0 35 -27c0 -77 -167 -130 -228 -130c-64 0 -34 89 -69 89c-22 0 -107 -93 -211 -89c-56 2 -87 38 -89 103c-2 56 21 138 29 207c3 26 10 49 -23 53c-20 2 -42 5 -42 31c0 40 56 69 86 83
c49 23 107 41 161 41c38 0 51 -20 51 -57c0 -39 -20 -134 -29 -186c-2 -13 -27 -112 16 -112c32 0 55 40 66 64c41 94 22 220 67 257c28 25 99 35 136 35c31 0 58 -9 58 -43c0 -13 -4 -37 -5 -50zM359 600c-18 -9 -67 -39 -88 -39c-24 0 -46 18 -46 42c0 32 35 56 59 69
c29 17 133 85 159 85c40 0 155 -109 155 -151c0 -25 -18 -47 -43 -47c-46 0 -83 72 -122 72c-22 0 -56 -21 -74 -31z" />
    <glyph glyph-name="onequarter" unicode="&#xbc;" horiz-adv-x="900" 
d="M890 106l-1 -16l-5 -50c-2 -18 0 -24 -22 -24c-12 0 -16 0 -18 -3c-1 -2 -1 -7 -4 -24c-2 -12 -2 -25 -4 -30c-3 -6 -10 -8 -28 -8h-73c-14 0 -30 -2 -30 16l2 19l3 24c0 9 -14 6 -19 6h-108c-10 0 -28 -1 -37 5c-12 7 -12 27 -12 39c0 51 20 75 52 113l136 147
c33 33 69 68 121 68c11 0 31 -2 41 -8c7 -5 8 -13 8 -20l-3 -29l-28 -196c0 -4 -1 -9 -1 -13c0 -7 7 -6 12 -6c9 0 18 1 18 -10zM736 211l1 14c0 4 2 16 -6 16c-14 0 -94 -96 -94 -114c0 -11 26 -11 34 -11h29c30 0 28 16 30 38zM383 213l233 405c15 31 26 44 61 44
c15 0 48 -2 48 -23c0 -22 -29 -60 -41 -77l-90 -146l-190 -323l-55 -102c-12 -25 -22 -48 -53 -48c-15 0 -59 4 -59 25c0 10 5 20 11 28l46 72l45 71zM127 381l7 71c-2 15 -8 34 -28 34c-7 0 -13 -3 -20 -6c-6 -2 -15 -7 -21 -7c-14 0 -18 15 -18 25c0 29 19 38 44 50
c41 18 152 49 201 49c23 0 38 -5 38 -28c0 -15 -9 -23 -22 -31c-16 -9 -18 -11 -23 -30c-13 -54 -21 -110 -19 -165c1 -32 8 -35 41 -36c21 -2 36 -2 36 -25c0 -51 -133 -46 -163 -46s-144 -11 -144 38c0 23 15 25 36 27c20 3 27 4 37 21c11 13 14 43 18 59z" />
    <glyph glyph-name="logicalnot" unicode="&#xac;" 
d="M441 165v80c0 28 1 43 -4 47c-6 5 -19 4 -47 4h-252c-45 0 -65 -5 -65 58s20 58 65 58h354c45 0 65 -20 65 -65v-182c0 -45 5 -65 -58 -65s-58 20 -58 65z" />
    <glyph glyph-name="Edieresis" unicode="&#xcb;" horiz-adv-x="697" 
d="M501 0h-267c-45 0 -91 -9 -136 -9c-64 0 -84 26 -84 59c0 60 62 32 84 96c23 70 58 310 58 385c0 78 -62 49 -62 104c0 58 53 71 101 69c25 -1 50 -2 76 -2c26 -1 52 -1 78 -1h157c36 0 58 3 73 6s24 6 34 6c34 0 84 -55 84 -149c0 -37 -18 -77 -60 -77
c-81 0 -35 99 -154 99c-101 0 -88 -18 -99 -124c-3 -39 -11 -47 22 -47c59 0 25 92 87 92c61 0 67 -80 67 -125c0 -53 -18 -183 -88 -183c-74 0 -16 101 -78 101c-42 0 -31 -93 -31 -124c0 -63 1 -61 67 -61c156 0 120 129 201 129c48 0 60 -39 60 -80
c0 -93 -69 -171 -106 -171c-6 0 -12 2 -23 4c-12 1 -29 3 -61 3zM542 759c-30 0 -77 9 -77 47c0 71 127 104 183 104c29 0 67 -15 67 -49c0 -28 -28 -52 -49 -66c-35 -22 -83 -36 -124 -36zM241 759c-29 0 -76 9 -76 47c0 71 127 104 182 104c30 0 68 -15 68 -49
c0 -28 -28 -52 -49 -66c-35 -22 -83 -36 -125 -36z" />
    <glyph glyph-name="onehalf" unicode="&#xbd;" horiz-adv-x="900" 
d="M383 213l233 405c15 31 26 44 61 44c15 0 48 -2 48 -23c0 -22 -29 -60 -41 -77l-90 -146l-190 -323l-55 -102c-12 -25 -22 -48 -53 -48c-15 0 -59 4 -59 25c0 10 5 20 11 28l46 72l45 71zM127 381l7 71c-2 15 -8 34 -28 34c-7 0 -13 -3 -20 -6c-6 -2 -15 -7 -21 -7
c-14 0 -18 15 -18 25c0 29 19 38 44 50c41 18 152 49 201 49c23 0 38 -5 38 -28c0 -15 -9 -23 -22 -31c-16 -9 -18 -11 -23 -30c-13 -54 -21 -110 -19 -165c1 -32 8 -35 41 -36c21 -2 36 -2 36 -25c0 -51 -133 -46 -163 -46s-144 -11 -144 38c0 23 15 25 36 27
c20 3 27 4 37 21c11 13 14 43 18 59zM768 0h-141c-23 0 -76 -5 -76 28c0 15 11 25 21 35l44 37c33 26 120 105 120 145c0 16 -12 26 -29 26c-41 0 -73 -46 -101 -46c-18 0 -33 21 -33 37c0 29 52 57 76 69c40 18 85 31 129 31c51 0 116 -19 116 -76c0 -27 -10 -45 -28 -66
l-58 -59l-20 -18c-7 -7 -22 -19 -22 -28c0 -17 20 -15 30 -15c19 -1 28 -2 41 16c9 12 16 27 35 27c23 0 27 -19 27 -37c0 -29 -7 -59 -20 -86c-9 -19 -24 -46 -50 -46c-11 0 -17 5 -22 14c-2 3 -4 8 -7 10c-6 3 -26 2 -32 2z" />
    <glyph glyph-name="Otilde" unicode="&#xd5;" horiz-adv-x="752" 
d="M779 441c0 -249 -195 -455 -440 -455c-170 0 -296 97 -296 274c0 249 195 455 440 455c170 0 296 -97 296 -274zM376 115c107 0 134 267 134 344c0 39 -3 132 -64 127c-107 0 -134 -267 -134 -344c0 -39 3 -132 64 -127zM539 875c3 33 33 45 63 45c39 0 62 -16 62 -57
c0 -61 -41 -116 -106 -116c-59 0 -160 64 -200 64c-10 0 -10 -8 -11 -17c0 -12 1 -22 -10 -31c-10 -9 -27 -13 -41 -13c-36 0 -62 16 -62 54c0 71 44 115 115 115c76 0 154 -58 181 -58c9 0 9 7 9 14z" />
    <glyph glyph-name="uacute" unicode="&#xfa;" horiz-adv-x="681" 
d="M657 419l-34 -193c-3 -15 -6 -31 -6 -46c0 -22 11 -30 31 -30c23 -1 35 0 35 -27c0 -77 -167 -130 -228 -130c-64 0 -34 89 -69 89c-22 0 -107 -93 -211 -89c-56 2 -87 38 -89 103c-2 56 21 138 29 207c3 26 10 49 -23 53c-20 2 -42 5 -42 31c0 40 56 69 86 83
c49 23 107 41 161 41c38 0 51 -20 51 -57c0 -39 -20 -134 -29 -186c-2 -13 -27 -112 16 -112c32 0 55 40 66 64c41 94 22 220 67 257c28 25 99 35 136 35c31 0 58 -9 58 -43c0 -13 -4 -37 -5 -50zM340 643c9 8 30 26 30 40c0 5 -1 7 -3 11c-3 6 -6 10 -6 16
c0 33 92 44 116 44c28 0 93 -7 93 -45c0 -76 -152 -145 -217 -145c-21 0 -40 12 -40 35c0 19 15 31 27 44z" />
    <glyph glyph-name="eacute" unicode="&#xe9;" horiz-adv-x="565" 
d="M424 517c79 0 146 -31 146 -119c0 -121 -135 -215 -248 -215c-14 0 -39 0 -39 -21c0 -29 36 -45 61 -45c72 0 127 57 159 57c21 0 40 -22 40 -42c0 -53 -67 -86 -108 -105c-56 -25 -110 -40 -173 -40c-122 0 -228 53 -223 187c9 208 203 343 385 343zM350 418
c-41 0 -69 -93 -69 -125c0 -12 4 -28 18 -28c28 0 77 74 74 122c-1 13 -7 31 -23 31zM302 643c9 8 30 26 30 40c0 5 -1 7 -3 11c-3 6 -6 10 -6 16c0 33 92 44 116 44c28 0 93 -7 93 -45c0 -76 -152 -145 -217 -145c-21 0 -40 12 -40 35c0 19 15 31 27 44z" />
    <glyph glyph-name="iacute" unicode="&#xed;" horiz-adv-x="370" 
d="M330 293l-12 -80c-2 -13 -8 -42 -8 -54c0 -19 11 -19 27 -19c19 0 33 -1 33 -25c0 -37 -34 -60 -63 -77c-45 -27 -99 -45 -152 -45c-38 0 -81 23 -81 65c0 19 3 37 6 56l26 170c2 13 8 42 8 54c0 16 -5 21 -21 21c-8 0 -19 -2 -26 4c-8 7 -13 21 -13 31c0 43 46 62 79 76
c47 20 123 42 174 42c31 0 45 -16 45 -46c0 -43 -15 -128 -22 -173zM185 643c9 8 30 26 30 40c0 5 -1 7 -3 11c-3 6 -6 10 -6 16c0 33 92 44 116 44c28 0 93 -7 93 -45c0 -76 -152 -145 -217 -145c-21 0 -40 12 -40 35c0 19 15 31 27 44z" />
    <glyph glyph-name="Eth" unicode="&#xd0;" horiz-adv-x="797" 
d="M553 427c0 78 -12 164 -98 164c-61 0 -52 -56 -55 -73l-3 -42l-2 -25c0 -15 0 -24 13 -24h14c18 0 27 1 37 1c18 0 22 -6 20 -36c-2 -38 -4 -44 -30 -44c-8 0 -31 1 -39 1c-16 1 -24 -8 -25 -27l-9 -93c-2 -22 -4 -43 -4 -65c0 -25 5 -43 35 -43c122 0 146 185 146 306z
M46 376l4 33c2 15 7 21 21 20l53 -2c18 0 27 3 29 11c3 19 8 61 8 100c0 81 -67 36 -67 96c0 65 61 67 111 67h120c29 0 58 1 88 3c29 1 58 2 87 2c110 0 311 -16 311 -302c0 -110 -39 -404 -396 -404h-226c-14 0 -29 -1 -43 -2c-15 -1 -29 -2 -44 -2c-43 0 -78 10 -78 59
c0 69 62 30 80 87c12 37 33 163 33 186c0 14 -4 20 -21 20l-24 -1c-8 0 -16 -1 -29 -1c-15 0 -19 11 -17 30z" />
    <glyph glyph-name="icircumflex" unicode="&#xee;" horiz-adv-x="370" 
d="M330 293l-12 -80c-2 -13 -8 -42 -8 -54c0 -19 11 -19 27 -19c19 0 33 -1 33 -25c0 -37 -34 -60 -63 -77c-45 -27 -99 -45 -152 -45c-38 0 -81 23 -81 65c0 19 3 37 6 56l26 170c2 13 8 42 8 54c0 16 -5 21 -21 21c-8 0 -19 -2 -26 4c-8 7 -13 21 -13 31c0 43 46 62 79 76
c47 20 123 42 174 42c31 0 45 -16 45 -46c0 -43 -15 -128 -22 -173zM204 600c-18 -9 -67 -39 -88 -39c-24 0 -46 18 -46 42c0 32 35 56 59 69c29 17 133 85 159 85c40 0 155 -109 155 -151c0 -25 -18 -47 -43 -47c-46 0 -83 72 -122 72c-22 0 -56 -21 -74 -31z" />
    <glyph glyph-name="registered" unicode="&#xae;" horiz-adv-x="800" 
d="M434 -14c-201 0 -365 163 -365 365c0 201 164 364 365 364s365 -163 365 -364c0 -202 -164 -365 -365 -365zM434 55c164 0 296 132 296 296c0 163 -132 295 -296 295s-296 -132 -296 -295c0 -164 132 -296 296 -296zM265 303v124c0 97 -41 49 -41 88c0 30 42 34 64 34
s45 -4 67 -4c35 0 71 4 106 4c61 0 133 -27 133 -100c0 -75 -55 -73 -55 -90s75 -15 76 -111c3 -48 42 -21 42 -53c0 -29 -47 -43 -87 -43c-150 0 -79 172 -160 172c-12 0 -16 -3 -16 -36c0 -16 1 -38 4 -53c4 -24 32 -18 32 -43c0 -30 -46 -35 -102 -35
c-26 0 -104 0 -104 40c0 34 41 -7 41 106zM393 460v-52c0 -14 -5 -26 13 -26c35 0 47 20 47 53c0 27 -7 54 -38 54c-20 0 -22 -12 -22 -29z" />
    <glyph glyph-name="brokenbar" unicode="&#xa6;" horiz-adv-x="418" 
d="M190 378v238c0 39 0 59 57 59c59 0 59 -20 59 -58v-242c0 -30 0 -50 -59 -50c-57 0 -57 20 -57 53zM190 -122v238c0 39 0 59 57 59c59 0 59 -20 59 -58v-242c0 -30 0 -50 -59 -50c-57 0 -57 20 -57 53z" />
    <glyph glyph-name="thorn" unicode="&#xfe;" horiz-adv-x="644" 
d="M381 361c-59 0 -80 -194 -80 -237c0 -18 3 -31 24 -31c59 0 88 173 88 217c0 21 -4 51 -32 51zM361 667l-3 -37l-7 -64c-3 -34 -10 -70 -10 -105c0 -8 3 -18 12 -18c19 0 62 75 143 75c103 0 138 -110 138 -194c0 -188 -130 -336 -250 -336c-18 0 -31 3 -43 6
c-11 3 -20 6 -29 6c-28 0 -15 -70 -9 -83c10 -22 52 -19 52 -50c0 -51 -73 -56 -109 -56c-54 0 -216 8 -216 85c0 22 10 30 26 43c22 18 26 30 30 58c26 191 47 423 47 533c0 28 0 38 -30 40s-42 4 -42 39c0 43 39 57 74 69c41 15 130 37 173 37c37 0 53 -9 53 -48z" />
    <glyph glyph-name="Atilde" unicode="&#xc3;" horiz-adv-x="775" 
d="M425 166h-134c-50 -4 -58 -18 -58 -44c0 -32 57 -9 57 -63c0 -35 -15 -67 -186 -67c-49 0 -125 0 -125 66c0 64 48 19 91 90c90 150 217 328 252 486c15 69 54 81 116 81c92 0 130 -50 159 -131c30 -84 88 -350 105 -424c18 -80 73 -30 73 -97c0 -78 -161 -71 -211 -71
c-41 0 -156 -7 -156 58c0 58 64 33 64 80c0 31 -24 29 -47 36zM342 281h65c29 2 33 10 33 26c0 41 -32 140 -49 140c-25 0 -79 -132 -79 -149c0 -11 15 -15 30 -17zM551 875c3 33 33 45 63 45c39 0 62 -16 62 -57c0 -61 -41 -116 -106 -116c-59 0 -160 64 -200 64
c-10 0 -10 -8 -11 -17c0 -12 1 -22 -10 -31c-10 -9 -27 -13 -41 -13c-36 0 -62 16 -62 54c0 71 44 115 115 115c76 0 154 -58 181 -58c9 0 9 7 9 14z" />
    <glyph glyph-name="yacute" unicode="&#xfd;" horiz-adv-x="623" 
d="M630 373c4 -216 -165 -567 -423 -567c-89 0 -179 49 -179 147c0 61 43 100 102 100c48 0 85 -27 85 -77c0 -17 -4 -34 -4 -51c0 -11 4 -20 16 -20c32 0 48 48 47 73c-2 74 -96 335 -134 335c-15 0 -36 -34 -58 -34c-26 0 -48 33 -46 57c6 64 174 176 232 176
c56 0 75 -48 94 -92c27 -64 74 -240 99 -246c27 -6 39 97 39 117c0 70 -46 88 -46 139c0 47 42 76 86 76c79 0 90 -70 90 -133zM331 643c9 8 30 26 30 40c0 5 -1 7 -3 11c-3 6 -6 10 -6 16c0 33 92 44 116 44c28 0 93 -7 93 -45c0 -76 -152 -145 -217 -145
c-21 0 -40 12 -40 35c0 19 15 31 27 44z" />
    <glyph glyph-name="Aacute" unicode="&#xc1;" horiz-adv-x="775" 
d="M425 166h-134c-50 -4 -58 -18 -58 -44c0 -32 57 -9 57 -63c0 -35 -15 -67 -186 -67c-49 0 -125 0 -125 66c0 64 48 19 91 90c90 150 217 328 252 486c15 69 54 81 116 81c92 0 130 -50 159 -131c30 -84 88 -350 105 -424c18 -80 73 -30 73 -97c0 -78 -161 -71 -211 -71
c-41 0 -156 -7 -156 58c0 58 64 33 64 80c0 31 -24 29 -47 36zM342 281h65c29 2 33 10 33 26c0 41 -32 140 -49 140c-25 0 -79 -132 -79 -149c0 -11 15 -15 30 -17zM387 820c9 8 30 26 30 40c0 5 -1 7 -3 11c-3 6 -6 10 -6 16c0 33 92 44 116 44c28 0 93 -7 93 -45
c0 -76 -152 -145 -217 -145c-21 0 -40 12 -40 35c0 19 15 31 27 44z" />
    <glyph glyph-name="Ccedilla" unicode="&#xc7;" horiz-adv-x="715" 
d="M553 216c21 21 55 67 91 67c41 0 59 -29 59 -67c0 -53 -41 -152 -103 -156c-21 -2 -21 -2 -41 -12c-65 -34 -116 -54 -184 -59c41 -58 58 -108 58 -145c0 -47 -63 -58 -99 -58c-31 0 -83 11 -83 51c0 27 30 42 52 46c13 2 29 4 29 20c0 21 -8 47 -24 85
c-153 8 -264 107 -264 270c0 226 178 454 420 457c67 1 109 -23 120 -23c12 0 29 10 43 10c58 0 105 -95 105 -157c0 -56 -31 -106 -92 -106c-93 0 -79 131 -169 131c-100 0 -144 -193 -144 -266c0 -68 26 -150 107 -150c51 0 85 28 119 62z" />
    <glyph glyph-name="ntilde" unicode="&#xf1;" horiz-adv-x="668" 
d="M412 228l12 89c0 18 -9 32 -28 32c-73 0 -86 -152 -92 -213c-10 -110 -32 -136 -161 -143c-36 -2 -73 8 -73 52c0 50 46 200 43 287c0 20 -7 32 -28 32h-10c-20 0 -28 12 -28 32c0 28 29 48 51 60c42 25 134 55 182 55c61 0 34 -88 65 -88c25 0 107 89 194 89
c58 0 114 -34 114 -97c0 -71 -35 -191 -35 -252c0 -40 48 -15 48 -54c0 -73 -151 -116 -208 -116c-44 0 -72 22 -72 67c0 51 18 116 26 168zM497 698c3 33 33 45 63 45c39 0 62 -16 62 -57c0 -61 -41 -116 -106 -116c-59 0 -160 64 -200 64c-10 0 -10 -8 -11 -17
c0 -12 1 -22 -10 -31c-10 -9 -27 -13 -41 -13c-36 0 -62 16 -62 54c0 71 44 115 115 115c76 0 154 -58 181 -58c9 0 9 7 9 14z" />
    <glyph glyph-name="eth" unicode="&#xf0;" horiz-adv-x="611" 
d="M316 93c42 0 50 60 56 90c10 51 24 128 24 179c0 23 -5 49 -33 49c-42 0 -52 -64 -59 -95c-11 -54 -20 -122 -20 -177c0 -23 6 -46 32 -46zM47 189c0 221 78 298 207 298c27 0 42 -1 54 -3s21 -5 35 -5c9 0 12 7 12 15c0 12 -23 38 -29 49c-4 7 -11 11 -20 11
c-12 0 -28 -7 -47 -14c-22 -9 -40 -15 -54 -15c-11 0 -24 14 -33 24c-6 7 -6 11 -6 17c0 7 29 19 53 28c13 5 41 13 41 22c0 15 -23 23 -23 42c0 29 116 57 141 57c32 0 54 -20 66 -30c5 -4 10 -5 15 -5s10 2 15 5l57 27c11 5 22 9 31 9s29 -16 36 -27c6 -10 9 -16 9 -21
c0 -4 -10 -9 -15 -11l-36 -17c-21 -11 -33 -16 -33 -23c0 -9 10 -13 23 -27c26 -28 82 -103 80 -277c-1 -84 -37 -173 -96 -233c-64 -66 -155 -98 -246 -98c-130 0 -237 59 -237 202z" />
    <glyph glyph-name="Aring" unicode="&#xc5;" horiz-adv-x="775" 
d="M425 166h-134c-50 -4 -58 -18 -58 -44c0 -32 57 -9 57 -63c0 -35 -15 -67 -186 -67c-49 0 -125 0 -125 66c0 64 48 19 91 90c90 150 217 328 252 486c15 69 54 81 116 81c92 0 130 -50 159 -131c30 -84 88 -350 105 -424c18 -80 73 -30 73 -97c0 -78 -161 -71 -211 -71
c-41 0 -156 -7 -156 58c0 58 64 33 64 80c0 31 -24 29 -47 36zM342 281h65c29 2 33 10 33 26c0 41 -32 140 -49 140c-25 0 -79 -132 -79 -149c0 -11 15 -15 30 -17zM490 942c66 0 142 -18 142 -98c0 -88 -81 -115 -155 -115c-68 0 -151 15 -151 99c0 32 15 64 41 83
c35 26 80 31 123 31zM489 895c-39 0 -59 -33 -59 -69c0 -26 19 -43 45 -43c39 0 59 30 59 67c0 28 -17 45 -45 45z" />
    <glyph glyph-name="mu" unicode="&#xb5;" horiz-adv-x="681" 
d="M645 419l-34 -193c-3 -15 -6 -31 -6 -46c0 -22 11 -30 31 -30c23 -1 35 0 35 -27c0 -77 -167 -130 -228 -130c-64 0 -34 89 -69 89c-22 0 -50 -38 -78 -46c-8 -48 -9 -57 -12 -72c-13 -74 -60 -149 -150 -149c-85 0 -107 81 -89 156c9 50 18 81 23 120
c5 36 27 143 35 212c3 26 10 49 -23 53c-20 2 -42 5 -42 31c0 40 56 69 86 83c49 23 107 41 161 41c38 0 51 -20 51 -57c0 -39 -20 -134 -29 -186c-2 -13 -27 -112 16 -112c32 0 55 40 66 64c41 94 22 220 67 257c28 25 99 35 136 35c31 0 58 -9 58 -43c0 -13 -4 -37 -5 -50
z" />
    <glyph glyph-name="Ugrave" unicode="&#xd9;" horiz-adv-x="795" 
d="M771 544l-31 -205c-26 -180 -62 -353 -337 -353c-161 0 -302 52 -302 212c0 116 41 244 40 347c-1 68 -66 22 -66 82c0 8 -23 82 232 82c158 0 162 -41 162 -69c0 -70 -78 -15 -88 -132c-29 -232 -25 -170 -33 -266c-6 -73 22 -114 93 -114c65 0 109 30 131 91
c32 86 46 235 46 327c0 77 -79 28 -79 100c0 38 27 63 158 63c168 0 161 -46 161 -61c0 -73 -75 -23 -87 -104zM519 820c12 -13 28 -25 28 -44c0 -23 -19 -35 -40 -35c-65 0 -217 69 -217 145c0 38 65 45 93 45c24 0 116 -11 116 -44c0 -6 -3 -10 -6 -16c-2 -4 -4 -6 -4 -11
c0 -14 22 -32 30 -40z" />
    <glyph glyph-name="Egrave" unicode="&#xc8;" horiz-adv-x="697" 
d="M501 0h-267c-45 0 -91 -9 -136 -9c-64 0 -84 26 -84 59c0 60 62 32 84 96c23 70 58 310 58 385c0 78 -62 49 -62 104c0 58 53 71 101 69c25 -1 50 -2 76 -2c26 -1 52 -1 78 -1h157c36 0 58 3 73 6s24 6 34 6c34 0 84 -55 84 -149c0 -37 -18 -77 -60 -77
c-81 0 -35 99 -154 99c-101 0 -88 -18 -99 -124c-3 -39 -11 -47 22 -47c59 0 25 92 87 92c61 0 67 -80 67 -125c0 -53 -18 -183 -88 -183c-74 0 -16 101 -78 101c-42 0 -31 -93 -31 -124c0 -63 1 -61 67 -61c156 0 120 129 201 129c48 0 60 -39 60 -80
c0 -93 -69 -171 -106 -171c-6 0 -12 2 -23 4c-12 1 -29 3 -61 3zM470 820c12 -13 28 -25 28 -44c0 -23 -19 -35 -40 -35c-65 0 -217 69 -217 145c0 38 65 45 93 45c24 0 116 -11 116 -44c0 -6 -3 -10 -6 -16c-2 -4 -4 -6 -4 -11c0 -14 22 -32 30 -40z" />
    <glyph glyph-name="Scaron" unicode="&#x160;" horiz-adv-x="643" 
d="M296 -15c-132 0 -275 62 -275 213c0 49 24 93 78 93c51 0 66 -47 81 -86c18 -45 48 -95 102 -95c34 0 67 19 67 57c0 88 -238 125 -238 316c0 150 134 232 272 232c49 0 88 -17 101 -17s31 17 59 17c59 0 108 -91 108 -143c0 -44 -32 -85 -78 -85c-73 0 -94 104 -161 104
c-26 0 -47 -14 -47 -42c0 -37 33 -57 62 -72c103 -56 201 -105 201 -238c0 -176 -180 -254 -332 -254zM475 893c19 10 67 39 89 39c24 0 45 -17 45 -42c0 -31 -35 -55 -59 -69c-29 -16 -133 -85 -159 -85c-40 0 -155 110 -155 152c0 24 18 46 43 46c47 0 83 -72 123 -72
c21 0 55 22 73 31z" />
    <glyph glyph-name="otilde" unicode="&#xf5;" horiz-adv-x="611" 
d="M271 -13c-125 0 -228 67 -228 198c0 191 150 332 340 332c125 0 228 -67 228 -198c0 -191 -150 -332 -340 -332zM350 411c-42 0 -52 -64 -59 -95c-11 -54 -20 -122 -20 -177c0 -23 6 -46 32 -46c42 0 50 60 56 90c10 51 24 128 24 179c0 23 -5 49 -33 49zM469 698
c3 33 33 45 63 45c39 0 62 -16 62 -57c0 -61 -41 -116 -106 -116c-59 0 -160 64 -200 64c-10 0 -10 -8 -11 -17c0 -12 1 -22 -10 -31c-10 -9 -27 -13 -41 -13c-36 0 -62 16 -62 54c0 71 44 115 115 115c76 0 154 -58 181 -58c9 0 9 7 9 14z" />
    <glyph glyph-name="Ntilde" unicode="&#xd1;" horiz-adv-x="813" 
d="M555 644c0 22 -5 65 171 65c89 0 151 -7 151 -65c0 -62 -87 -21 -94 -88c-1 -8 -14 -63 -18 -94l-41 -284c-23 -158 -59 -186 -117 -186c-63 0 -97 60 -128 106l-146 220c-8 12 -36 57 -53 57c-22 0 -25 -60 -27 -74c-5 -31 -15 -140 -15 -154c0 -67 70 -49 70 -96
c0 -57 -93 -59 -133 -59c-43 0 -175 1 -175 64c0 50 60 32 74 70c60 162 63 309 75 417c8 76 -80 22 -80 92s81 74 196 74c87 0 103 -10 168 -114l113 -169c6 -9 44 -69 57 -69c34 0 33 165 33 175c6 120 -81 29 -81 112zM570 875c3 33 33 45 63 45c39 0 62 -16 62 -57
c0 -61 -41 -116 -106 -116c-59 0 -160 64 -200 64c-10 0 -10 -8 -11 -17c0 -12 1 -22 -10 -31c-10 -9 -27 -13 -41 -13c-36 0 -62 16 -62 54c0 71 44 115 115 115c76 0 154 -58 181 -58c9 0 9 7 9 14z" />
    <glyph glyph-name="Uacute" unicode="&#xda;" horiz-adv-x="795" 
d="M771 544l-31 -205c-26 -180 -62 -353 -337 -353c-161 0 -302 52 -302 212c0 116 41 244 40 347c-1 68 -66 22 -66 82c0 8 -23 82 232 82c158 0 162 -41 162 -69c0 -70 -78 -15 -88 -132c-29 -232 -25 -170 -33 -266c-6 -73 22 -114 93 -114c65 0 109 30 131 91
c32 86 46 235 46 327c0 77 -79 28 -79 100c0 38 27 63 158 63c168 0 161 -46 161 -61c0 -73 -75 -23 -87 -104zM457 820c9 8 30 26 30 40c0 5 -1 7 -3 11c-3 6 -6 10 -6 16c0 33 92 44 116 44c28 0 93 -7 93 -45c0 -76 -152 -145 -217 -145c-21 0 -40 12 -40 35
c0 19 15 31 27 44z" />
    <glyph glyph-name="Acircumflex" unicode="&#xc2;" horiz-adv-x="775" 
d="M425 166h-134c-50 -4 -58 -18 -58 -44c0 -32 57 -9 57 -63c0 -35 -15 -67 -186 -67c-49 0 -125 0 -125 66c0 64 48 19 91 90c90 150 217 328 252 486c15 69 54 81 116 81c92 0 130 -50 159 -131c30 -84 88 -350 105 -424c18 -80 73 -30 73 -97c0 -78 -161 -71 -211 -71
c-41 0 -156 -7 -156 58c0 58 64 33 64 80c0 31 -24 29 -47 36zM342 281h65c29 2 33 10 33 26c0 41 -32 140 -49 140c-25 0 -79 -132 -79 -149c0 -11 15 -15 30 -17zM406 777c-18 -9 -67 -39 -88 -39c-24 0 -46 18 -46 42c0 32 35 56 59 69c29 17 133 85 159 85
c40 0 155 -109 155 -151c0 -25 -18 -47 -43 -47c-46 0 -83 72 -122 72c-22 0 -56 -21 -74 -31z" />
    <glyph glyph-name="ocircumflex" unicode="&#xf4;" horiz-adv-x="611" 
d="M271 -13c-125 0 -228 67 -228 198c0 191 150 332 340 332c125 0 228 -67 228 -198c0 -191 -150 -332 -340 -332zM350 411c-42 0 -52 -64 -59 -95c-11 -54 -20 -122 -20 -177c0 -23 6 -46 32 -46c42 0 50 60 56 90c10 51 24 128 24 179c0 23 -5 49 -33 49zM324 600
c-18 -9 -67 -39 -88 -39c-24 0 -46 18 -46 42c0 32 35 56 59 69c29 17 133 85 159 85c40 0 155 -109 155 -151c0 -25 -18 -47 -43 -47c-46 0 -83 72 -122 72c-22 0 -56 -21 -74 -31z" />
    <glyph glyph-name="ydieresis" unicode="&#xff;" horiz-adv-x="623" 
d="M630 373c4 -216 -165 -567 -423 -567c-89 0 -179 49 -179 147c0 61 43 100 102 100c48 0 85 -27 85 -77c0 -17 -4 -34 -4 -51c0 -11 4 -20 16 -20c32 0 48 48 47 73c-2 74 -96 335 -134 335c-15 0 -36 -34 -58 -34c-26 0 -48 33 -46 57c6 64 174 176 232 176
c56 0 75 -48 94 -92c27 -64 74 -240 99 -246c27 -6 39 97 39 117c0 70 -46 88 -46 139c0 47 42 76 86 76c79 0 90 -70 90 -133zM505 582c-30 0 -77 9 -77 47c0 71 127 104 183 104c29 0 67 -15 67 -49c0 -28 -28 -52 -49 -66c-35 -22 -83 -36 -124 -36zM204 582
c-29 0 -76 9 -76 47c0 71 127 104 182 104c30 0 68 -15 68 -49c0 -28 -28 -52 -49 -66c-35 -22 -83 -36 -125 -36z" />
    <glyph glyph-name="Eacute" unicode="&#xc9;" horiz-adv-x="697" 
d="M501 0h-267c-45 0 -91 -9 -136 -9c-64 0 -84 26 -84 59c0 60 62 32 84 96c23 70 58 310 58 385c0 78 -62 49 -62 104c0 58 53 71 101 69c25 -1 50 -2 76 -2c26 -1 52 -1 78 -1h157c36 0 58 3 73 6s24 6 34 6c34 0 84 -55 84 -149c0 -37 -18 -77 -60 -77
c-81 0 -35 99 -154 99c-101 0 -88 -18 -99 -124c-3 -39 -11 -47 22 -47c59 0 25 92 87 92c61 0 67 -80 67 -125c0 -53 -18 -183 -88 -183c-74 0 -16 101 -78 101c-42 0 -31 -93 -31 -124c0 -63 1 -61 67 -61c156 0 120 129 201 129c48 0 60 -39 60 -80
c0 -93 -69 -171 -106 -171c-6 0 -12 2 -23 4c-12 1 -29 3 -61 3zM348 820c9 8 30 26 30 40c0 5 -1 7 -3 11c-3 6 -6 10 -6 16c0 33 92 44 116 44c28 0 93 -7 93 -45c0 -76 -152 -145 -217 -145c-21 0 -40 12 -40 35c0 19 15 31 27 44z" />
    <glyph glyph-name="Ograve" unicode="&#xd2;" horiz-adv-x="752" 
d="M779 441c0 -249 -195 -455 -440 -455c-170 0 -296 97 -296 274c0 249 195 455 440 455c170 0 296 -97 296 -274zM376 115c107 0 134 267 134 344c0 39 -3 132 -64 127c-107 0 -134 -267 -134 -344c0 -39 3 -132 64 -127zM498 820c12 -13 28 -25 28 -44
c0 -23 -19 -35 -40 -35c-65 0 -217 69 -217 145c0 38 65 45 93 45c24 0 116 -11 116 -44c0 -6 -3 -10 -6 -16c-2 -4 -4 -6 -4 -11c0 -14 22 -32 30 -40z" />
    <glyph glyph-name="acircumflex" unicode="&#xe2;" horiz-adv-x="630" 
d="M289 144c53 4 118 174 116 224c0 13 -4 33 -20 32c-53 -4 -120 -153 -119 -217c0 -15 3 -41 23 -39zM567 512c28 0 43 -10 41 -38c-4 -60 -22 -150 -30 -258c-1 -16 -5 -48 1 -64c4 -12 11 -11 22 -12c15 -2 25 -9 25 -25c0 -65 -146 -123 -201 -123c-89 0 -46 85 -78 85
c-26 0 -75 -90 -178 -90c-92 0 -130 81 -126 162c8 180 120 348 274 362c70 7 98 -41 127 -41c11 0 29 11 38 16c28 14 54 26 85 26zM334 600c-18 -9 -67 -39 -88 -39c-24 0 -46 18 -46 42c0 32 35 56 59 69c29 17 133 85 159 85c40 0 155 -109 155 -151
c0 -25 -18 -47 -43 -47c-46 0 -83 72 -122 72c-22 0 -56 -21 -74 -31z" />
    <glyph glyph-name="multiply" unicode="&#xd7;" 
d="M511 370l-78 -78c-19 -19 -29 -27 -29 -36c0 -8 10 -16 29 -36l78 -78c18 -18 31 -29 32 -42c0 -23 -45 -72 -72 -72c-12 0 -24 14 -42 32l-78 78c-19 20 -27 29 -36 29c-8 0 -16 -9 -36 -29l-78 -78c-18 -18 -30 -32 -42 -32c-27 0 -72 49 -72 72c1 13 14 24 32 42
l78 78c20 20 29 28 29 36c0 9 -9 17 -29 36l-78 78c-18 18 -31 29 -32 42c0 23 45 72 72 72c12 0 24 -14 42 -32l78 -78c20 -19 28 -29 36 -29c9 0 17 10 36 29l78 78c18 18 30 32 42 32c27 0 72 -49 72 -72c-1 -13 -14 -24 -32 -42z" />
    <glyph glyph-name="divide" unicode="&#xf7;" 
d="M492 198h-354c-45 0 -65 -5 -65 58s20 58 65 58h354c45 0 65 5 65 -58s-20 -58 -65 -58zM315 164c41 0 75 -34 75 -75s-34 -75 -75 -75s-75 34 -75 75s34 75 75 75zM315 498c41 0 75 -34 75 -75s-34 -75 -75 -75s-75 34 -75 75s34 75 75 75z" />
    <glyph glyph-name="ccedilla" unicode="&#xe7;" horiz-adv-x="550" 
d="M435 152c15 9 31 21 49 21c26 0 39 -33 39 -55c0 -36 -45 -64 -73 -79c-52 -29 -103 -46 -161 -50c29 -52 64 -112 64 -145c0 -47 -63 -58 -99 -58c-31 0 -83 11 -83 51c0 27 30 42 52 46c24 4 29 8 29 20c0 16 -15 51 -30 86c-105 9 -183 66 -183 187
c0 185 167 341 349 341c81 0 165 -40 168 -133c2 -63 -54 -123 -117 -123c-33 0 -74 22 -74 60c0 27 17 50 17 67c0 10 -8 18 -18 18c-62 1 -82 -162 -79 -207c0 -32 6 -82 49 -82c37 0 70 17 101 35z" />
    <glyph glyph-name="twosuperior" unicode="&#xb2;" horiz-adv-x="354" 
d="M307 357c9 12 16 27 35 27c23 0 27 -19 27 -37c0 -29 -7 -59 -20 -86c-9 -19 -24 -46 -50 -46c-11 0 -17 5 -22 14c-2 3 -4 8 -7 10c-6 3 -26 2 -32 2h-141c-23 0 -76 -5 -76 28c0 15 11 25 21 35l44 37c33 26 120 105 120 145c0 16 -12 26 -29 26
c-41 0 -73 -46 -101 -46c-18 0 -33 21 -33 37c0 29 52 57 76 69c40 18 85 31 129 31c51 0 116 -19 116 -76c0 -27 -10 -45 -28 -66l-58 -59l-20 -18c-7 -7 -22 -19 -22 -28c0 -14 20 -12 30 -12c19 -1 28 -2 41 13z" />
    <glyph glyph-name="ugrave" unicode="&#xf9;" horiz-adv-x="681" 
d="M657 419l-34 -193c-3 -15 -6 -31 -6 -46c0 -22 11 -30 31 -30c23 -1 35 0 35 -27c0 -77 -167 -130 -228 -130c-64 0 -34 89 -69 89c-22 0 -107 -93 -211 -89c-56 2 -87 38 -89 103c-2 56 21 138 29 207c3 26 10 49 -23 53c-20 2 -42 5 -42 31c0 40 56 69 86 83
c49 23 107 41 161 41c38 0 51 -20 51 -57c0 -39 -20 -134 -29 -186c-2 -13 -27 -112 16 -112c32 0 55 40 66 64c41 94 22 220 67 257c28 25 99 35 136 35c31 0 58 -9 58 -43c0 -13 -4 -37 -5 -50zM462 643c12 -13 28 -25 28 -44c0 -23 -19 -35 -40 -35
c-65 0 -217 69 -217 145c0 38 65 45 93 45c24 0 116 -11 116 -44c0 -6 -3 -10 -6 -16c-2 -4 -4 -6 -4 -11c0 -14 22 -32 30 -40z" />
    <glyph glyph-name="Agrave" unicode="&#xc0;" horiz-adv-x="775" 
d="M425 166h-134c-50 -4 -58 -18 -58 -44c0 -32 57 -9 57 -63c0 -35 -15 -67 -186 -67c-49 0 -125 0 -125 66c0 64 48 19 91 90c90 150 217 328 252 486c15 69 54 81 116 81c92 0 130 -50 159 -131c30 -84 88 -350 105 -424c18 -80 73 -30 73 -97c0 -78 -161 -71 -211 -71
c-41 0 -156 -7 -156 58c0 58 64 33 64 80c0 31 -24 29 -47 36zM342 281h65c29 2 33 10 33 26c0 41 -32 140 -49 140c-25 0 -79 -132 -79 -149c0 -11 15 -15 30 -17zM509 820c12 -13 28 -25 28 -44c0 -23 -19 -35 -40 -35c-65 0 -217 69 -217 145c0 38 65 45 93 45
c24 0 116 -11 116 -44c0 -6 -3 -10 -6 -16c-2 -4 -4 -6 -4 -11c0 -14 22 -32 30 -40z" />
    <glyph glyph-name="Ucircumflex" unicode="&#xdb;" horiz-adv-x="795" 
d="M771 544l-31 -205c-26 -180 -62 -353 -337 -353c-161 0 -302 52 -302 212c0 116 41 244 40 347c-1 68 -66 22 -66 82c0 8 -23 82 232 82c158 0 162 -41 162 -69c0 -70 -78 -15 -88 -132c-29 -232 -25 -170 -33 -266c-6 -73 22 -114 93 -114c65 0 109 30 131 91
c32 86 46 235 46 327c0 77 -79 28 -79 100c0 38 27 63 158 63c168 0 161 -46 161 -61c0 -73 -75 -23 -87 -104zM456 777c-18 -9 -67 -39 -88 -39c-24 0 -46 18 -46 42c0 32 35 56 59 69c29 17 133 85 159 85c40 0 155 -109 155 -151c0 -25 -18 -47 -43 -47
c-46 0 -83 72 -122 72c-22 0 -56 -21 -74 -31z" />
    <glyph glyph-name="zcaron" unicode="&#x17e;" horiz-adv-x="506" 
d="M240 506h208c25 1 66 1 66 -33c0 -35 -30 -62 -47 -89c-7 -12 -164 -170 -164 -201c0 -14 10 -17 22 -17s26 2 33 3c40 5 43 10 52 26c11 20 18 34 43 34c37 0 46 -27 46 -60c0 -52 -44 -175 -98 -175c-21 0 -35 6 -66 4h-232c-26 0 -57 8 -57 39c0 26 17 36 28 49
c51 59 178 195 194 235c5 12 -22 16 -32 17c-64 0 -74 -6 -95 -37c-7 -11 -17 -19 -31 -19c-38 0 -47 40 -47 71c0 38 35 164 84 164c6 0 14 -2 20 -4c24 -8 47 -7 73 -7zM407 716c19 10 67 39 89 39c24 0 45 -17 45 -42c0 -31 -35 -55 -59 -69c-29 -16 -133 -85 -159 -85
c-40 0 -155 110 -155 152c0 24 18 46 43 46c47 0 83 -72 123 -72c21 0 55 22 73 31z" />
    <glyph glyph-name="Ydieresis" unicode="&#x178;" horiz-adv-x="704" 
d="M239 403l-101 164c-33 43 -82 25 -82 70c0 55 54 72 245 72c108 0 135 -19 135 -58c0 -46 -45 -42 -45 -69c0 -18 36 -96 53 -97c15 -1 78 91 78 103c0 20 -34 27 -34 63c0 56 110 58 147 58c87 0 132 -13 132 -56c0 -55 -70 -36 -97 -69l-117 -144
c-66 -81 -66 -89 -71 -193l-4 -117c-2 -50 71 -18 71 -69c0 -19 6 -69 -196 -69c-105 0 -201 2 -201 59c0 63 79 31 86 81l28 202c0 25 -14 48 -27 69zM565 759c-30 0 -77 9 -77 47c0 71 127 104 183 104c29 0 67 -15 67 -49c0 -28 -28 -52 -49 -66
c-35 -22 -83 -36 -124 -36zM264 759c-29 0 -76 9 -76 47c0 71 127 104 182 104c30 0 68 -15 68 -49c0 -28 -28 -52 -49 -66c-35 -22 -83 -36 -125 -36z" />
    <glyph glyph-name="Adieresis" unicode="&#xc4;" horiz-adv-x="775" 
d="M425 166h-134c-50 -4 -58 -18 -58 -44c0 -32 57 -9 57 -63c0 -35 -15 -67 -186 -67c-49 0 -125 0 -125 66c0 64 48 19 91 90c90 150 217 328 252 486c15 69 54 81 116 81c92 0 130 -50 159 -131c30 -84 88 -350 105 -424c18 -80 73 -30 73 -97c0 -78 -161 -71 -211 -71
c-41 0 -156 -7 -156 58c0 58 64 33 64 80c0 31 -24 29 -47 36zM342 281h65c29 2 33 10 33 26c0 41 -32 140 -49 140c-25 0 -79 -132 -79 -149c0 -11 15 -15 30 -17zM581 759c-30 0 -77 9 -77 47c0 71 127 104 183 104c29 0 67 -15 67 -49c0 -28 -28 -52 -49 -66
c-35 -22 -83 -36 -124 -36zM280 759c-29 0 -76 9 -76 47c0 71 127 104 182 104c30 0 68 -15 68 -49c0 -28 -28 -52 -49 -66c-35 -22 -83 -36 -125 -36z" />
    <glyph glyph-name="Icircumflex" unicode="&#xce;" horiz-adv-x="461" 
d="M114 187l41 330c1 15 5 29 5 50c0 49 -70 17 -70 77c0 13 -11 65 195 65c165 0 218 -13 218 -66c0 -63 -77 -21 -87 -81c-3 -19 -8 -39 -12 -58l-39 -276c-3 -22 -7 -43 -7 -66c0 -81 71 -37 71 -99c0 -74 -136 -71 -188 -71c-167 0 -228 14 -228 74c0 66 88 13 101 121z
M269 777c-18 -9 -67 -39 -88 -39c-24 0 -46 18 -46 42c0 32 35 56 59 69c29 17 133 85 159 85c40 0 155 -109 155 -151c0 -25 -18 -47 -43 -47c-46 0 -83 72 -122 72c-22 0 -56 -21 -74 -31z" />
    <glyph glyph-name="idieresis" unicode="&#xef;" horiz-adv-x="370" 
d="M330 293l-12 -80c-2 -13 -8 -42 -8 -54c0 -19 11 -19 27 -19c19 0 33 -1 33 -25c0 -37 -34 -60 -63 -77c-45 -27 -99 -45 -152 -45c-38 0 -81 23 -81 65c0 19 3 37 6 56l26 170c2 13 8 42 8 54c0 16 -5 21 -21 21c-8 0 -19 -2 -26 4c-8 7 -13 21 -13 31c0 43 46 62 79 76
c47 20 123 42 174 42c31 0 45 -16 45 -46c0 -43 -15 -128 -22 -173zM378 582c-30 0 -77 9 -77 47c0 71 127 104 183 104c29 0 67 -15 67 -49c0 -28 -28 -52 -49 -66c-35 -22 -83 -36 -124 -36zM77 582c-29 0 -76 9 -76 47c0 71 127 104 182 104c30 0 68 -15 68 -49
c0 -28 -28 -52 -49 -66c-35 -22 -83 -36 -125 -36z" />
    <glyph glyph-name="Oacute" unicode="&#xd3;" horiz-adv-x="752" 
d="M779 441c0 -249 -195 -455 -440 -455c-170 0 -296 97 -296 274c0 249 195 455 440 455c170 0 296 -97 296 -274zM376 115c107 0 134 267 134 344c0 39 -3 132 -64 127c-107 0 -134 -267 -134 -344c0 -39 3 -132 64 -127zM436 820c9 8 30 26 30 40c0 5 -1 7 -3 11
c-3 6 -6 10 -6 16c0 33 92 44 116 44c28 0 93 -7 93 -45c0 -76 -152 -145 -217 -145c-21 0 -40 12 -40 35c0 19 15 31 27 44z" />
    <glyph glyph-name="aring" unicode="&#xe5;" horiz-adv-x="630" 
d="M289 144c53 4 118 174 116 224c0 13 -4 33 -20 32c-53 -4 -120 -153 -119 -217c0 -15 3 -41 23 -39zM567 512c28 0 43 -10 41 -38c-4 -60 -22 -150 -30 -258c-1 -16 -5 -48 1 -64c4 -12 11 -11 22 -12c15 -2 25 -9 25 -25c0 -65 -146 -123 -201 -123c-89 0 -46 85 -78 85
c-26 0 -75 -90 -178 -90c-92 0 -130 81 -126 162c8 180 120 348 274 362c70 7 98 -41 127 -41c11 0 29 11 38 16c28 14 54 26 85 26zM427 765c66 0 142 -18 142 -98c0 -88 -81 -115 -155 -115c-68 0 -151 15 -151 99c0 32 15 64 41 83c35 26 80 31 123 31zM426 718
c-39 0 -59 -33 -59 -69c0 -26 19 -43 45 -43c39 0 59 30 59 67c0 28 -17 45 -45 45z" />
    <glyph glyph-name="Yacute" unicode="&#xdd;" horiz-adv-x="704" 
d="M239 403l-101 164c-33 43 -82 25 -82 70c0 55 54 72 245 72c108 0 135 -19 135 -58c0 -46 -45 -42 -45 -69c0 -18 36 -96 53 -97c15 -1 78 91 78 103c0 20 -34 27 -34 63c0 56 110 58 147 58c87 0 132 -13 132 -56c0 -55 -70 -36 -97 -69l-117 -144
c-66 -81 -66 -89 -71 -193l-4 -117c-2 -50 71 -18 71 -69c0 -19 6 -69 -196 -69c-105 0 -201 2 -201 59c0 63 79 31 86 81l28 202c0 25 -14 48 -27 69zM372 860c9 8 30 26 30 40c0 5 -1 7 -3 11c-3 6 -6 10 -6 16c0 33 92 44 116 44c28 0 93 -7 93 -45
c0 -76 -152 -145 -217 -145c-21 0 -40 12 -40 35c0 19 15 31 27 44z" />
    <glyph glyph-name="trademark" unicode="&#x2122;" horiz-adv-x="1000" 
d="M311 575v-151c0 -94 53 -46 53 -91c0 -41 -78 -42 -119 -42c-29 0 -137 -1 -137 44c0 37 49 11 52 61l9 167c3 57 -9 60 -18 60c-26 0 -39 -69 -86 -69c-22 0 -35 21 -35 42c0 46 39 112 74 112c2 0 8 -2 19 -3c12 -2 29 -4 52 -4h142c24 0 36 2 45 5c9 2 14 4 23 4
c36 0 70 -67 70 -108c0 -28 -15 -47 -45 -47c-50 0 -49 67 -79 67c-22 0 -20 -31 -20 -47zM756 560l35 69c32 61 33 78 109 78c25 0 83 -1 83 -37s-32 -10 -36 -69c-2 -30 -5 -59 -5 -89c0 -35 5 -69 5 -104c0 -75 37 -48 37 -80c0 -39 -79 -37 -104 -37
c-24 0 -103 -2 -103 35c0 22 26 16 33 51c2 9 11 100 -9 100c-18 0 -37 -51 -42 -64l-30 -66c-5 -10 -15 -40 -30 -40c-19 0 -20 16 -48 77l-34 75c-3 8 -10 25 -20 25c-15 0 -12 -26 -12 -83c0 -86 37 -41 37 -76c0 -33 -62 -34 -84 -34c-21 0 -73 2 -73 32
c0 28 31 9 40 50c3 12 9 107 9 194c0 111 -47 56 -47 100c0 16 13 40 99 40c64 0 64 -6 83 -41l55 -101c5 -9 13 -33 27 -33s20 18 25 28z" />
    <glyph glyph-name="threesuperior" unicode="&#xb3;" horiz-adv-x="354" 
d="M161 364c-32 -2 -43 1 -43 34c0 15 0 23 17 27c29 8 63 28 63 59c0 18 -12 28 -31 28c-25 0 -45 -14 -63 -28c-9 -7 -15 -14 -27 -14c-18 0 -31 20 -31 35c0 31 44 55 70 67c39 19 78 31 122 31c53 0 111 -22 111 -78c0 -46 -40 -69 -40 -80c0 -17 53 -24 53 -84
c0 -46 -23 -98 -62 -128c-41 -32 -98 -47 -152 -47c-41 0 -129 11 -129 62c0 11 10 27 23 27c17 0 40 -19 80 -19c19 0 41 3 57 14c18 13 28 35 28 55c0 12 -1 24 -11 33s-22 6 -35 6z" />
    <glyph glyph-name="Zcaron" unicode="&#x17d;" horiz-adv-x="640" 
d="M72 125l220 335c20 30 50 76 50 95s-30 25 -44 25c-153 0 -77 -120 -171 -120c-43 0 -60 30 -60 70c0 74 59 179 115 179c16 0 18 -2 23 -4s13 -4 40 -4h319c35 0 96 4 96 -46c0 -43 -47 -95 -113 -207l-131 -220c-10 -17 -39 -60 -39 -79s42 -24 55 -24
c134 0 78 112 153 112c43 0 60 -35 60 -73c0 -47 -39 -175 -98 -175c-19 0 -47 14 -98 11h-175c-29 0 -58 -1 -87 -2c-30 -2 -59 -3 -88 -3c-32 0 -66 6 -66 46c0 26 26 65 39 84zM474 893c19 10 67 39 89 39c24 0 45 -17 45 -42c0 -31 -35 -55 -59 -69
c-29 -16 -133 -85 -159 -85c-40 0 -155 110 -155 152c0 24 18 46 43 46c47 0 83 -72 123 -72c21 0 55 22 73 31z" />
    <glyph glyph-name="threequarters" unicode="&#xbe;" horiz-adv-x="900" 
d="M736 211l1 14c0 4 2 16 -6 16c-14 0 -94 -96 -94 -114c0 -11 26 -11 34 -11h29c30 0 28 16 30 38zM890 106l-1 -16l-5 -50c-2 -18 0 -24 -22 -24c-12 0 -16 0 -18 -3c-1 -2 -1 -7 -4 -24c-2 -12 -2 -25 -4 -30c-3 -6 -10 -8 -28 -8h-73c-14 0 -30 -2 -30 16l2 19l3 24
c0 9 -14 6 -19 6h-108c-10 0 -28 -1 -37 5c-12 7 -12 27 -12 39c0 51 20 75 52 113l136 147c33 33 69 68 121 68c11 0 31 -2 41 -8c7 -5 8 -13 8 -20l-3 -29l-28 -196c0 -4 -1 -9 -1 -13c0 -7 7 -6 12 -6c9 0 18 1 18 -10zM383 213l233 405c15 31 26 44 61 44
c15 0 48 -2 48 -23c0 -22 -29 -60 -41 -77l-90 -146l-190 -323l-55 -102c-12 -25 -22 -48 -53 -48c-15 0 -59 4 -59 25c0 10 5 20 11 28l46 72l45 71zM149 364c-32 -2 -43 1 -43 34c0 15 0 23 17 27c29 8 63 28 63 59c0 18 -12 28 -31 28c-25 0 -45 -14 -63 -28
c-9 -7 -15 -14 -27 -14c-18 0 -31 20 -31 35c0 31 44 55 70 67c39 19 78 31 122 31c53 0 111 -22 111 -78c0 -46 -40 -69 -40 -80c0 -17 53 -24 53 -84c0 -46 -23 -98 -62 -128c-41 -32 -98 -47 -152 -47c-41 0 -129 11 -129 62c0 11 10 27 23 27c17 0 40 -19 80 -19
c19 0 41 3 57 14c18 13 28 35 28 55c0 12 -1 24 -11 33s-22 6 -35 6z" />
    <glyph glyph-name="Euro" unicode="&#x20ac;" 
d="M618 477c0 -42 -27 -78 -71 -78c-72 0 -33 102 -108 102c-52 0 -88 -66 -107 -141h153c12 0 26 -2 32 -13c4 -7 5 -19 -3 -37l-15 -32c-10 -21 -22 -27 -55 -27h-130v-10c0 -57 17 -144 85 -144c75 0 61 100 127 100c44 0 63 -37 54 -78c-12 -59 -66 -125 -114 -125
c-19 0 -24 14 -34 14c-5 0 -20 -4 -40 -7c-20 -4 -45 -8 -71 -8c-119 0 -222 84 -222 228c0 10 1 20 1 30h-29c-12 0 -26 2 -32 13c-4 7 -5 19 3 37l15 32c10 21 17 27 55 27h13c51 134 169 243 306 243c40 0 54 -15 63 -15c10 0 16 13 36 13c49 0 88 -65 88 -124z" />
    <glyph glyph-name="ograve" unicode="&#xf2;" horiz-adv-x="611" 
d="M271 -13c-125 0 -228 67 -228 198c0 191 150 332 340 332c125 0 228 -67 228 -198c0 -191 -150 -332 -340 -332zM350 411c-42 0 -52 -64 -59 -95c-11 -54 -20 -122 -20 -177c0 -23 6 -46 32 -46c42 0 50 60 56 90c10 51 24 128 24 179c0 23 -5 49 -33 49zM447 643
c12 -13 28 -25 28 -44c0 -23 -19 -35 -40 -35c-65 0 -217 69 -217 145c0 38 65 45 93 45c24 0 116 -11 116 -44c0 -6 -3 -10 -6 -16c-2 -4 -4 -6 -4 -11c0 -14 22 -32 30 -40z" />
    <glyph glyph-name="udieresis" unicode="&#xfc;" horiz-adv-x="681" 
d="M657 419l-34 -193c-3 -15 -6 -31 -6 -46c0 -22 11 -30 31 -30c23 -1 35 0 35 -27c0 -77 -167 -130 -228 -130c-64 0 -34 89 -69 89c-22 0 -107 -93 -211 -89c-56 2 -87 38 -89 103c-2 56 21 138 29 207c3 26 10 49 -23 53c-20 2 -42 5 -42 31c0 40 56 69 86 83
c49 23 107 41 161 41c38 0 51 -20 51 -57c0 -39 -20 -134 -29 -186c-2 -13 -27 -112 16 -112c32 0 55 40 66 64c41 94 22 220 67 257c28 25 99 35 136 35c31 0 58 -9 58 -43c0 -13 -4 -37 -5 -50zM534 582c-30 0 -77 9 -77 47c0 71 127 104 183 104c29 0 67 -15 67 -49
c0 -28 -28 -52 -49 -66c-35 -22 -83 -36 -124 -36zM233 582c-29 0 -76 9 -76 47c0 71 127 104 182 104c30 0 68 -15 68 -49c0 -28 -28 -52 -49 -66c-35 -22 -83 -36 -125 -36z" />
    <glyph glyph-name="edieresis" unicode="&#xeb;" horiz-adv-x="565" 
d="M424 517c79 0 146 -31 146 -119c0 -121 -135 -215 -248 -215c-14 0 -39 0 -39 -21c0 -29 36 -45 61 -45c72 0 127 57 159 57c21 0 40 -22 40 -42c0 -53 -67 -86 -108 -105c-56 -25 -110 -40 -173 -40c-122 0 -228 53 -223 187c9 208 203 343 385 343zM350 418
c-41 0 -69 -93 -69 -125c0 -12 4 -28 18 -28c28 0 77 74 74 122c-1 13 -7 31 -23 31zM476 582c-30 0 -77 9 -77 47c0 71 127 104 183 104c29 0 67 -15 67 -49c0 -28 -28 -52 -49 -66c-35 -22 -83 -36 -124 -36zM175 582c-29 0 -76 9 -76 47c0 71 127 104 182 104
c30 0 68 -15 68 -49c0 -28 -28 -52 -49 -66c-35 -22 -83 -36 -125 -36z" />
    <glyph glyph-name="plusminus" unicode="&#xb1;" 
d="M492 266h-68c-28 0 -41 1 -46 -4c-6 -6 -5 -19 -5 -47c0 -45 5 -65 -58 -65s-58 20 -58 65c0 28 2 42 -4 47s-19 4 -47 4h-68c-45 0 -65 -5 -65 58s20 58 65 58h68c28 0 41 -1 47 5c5 5 4 18 4 46c0 45 -5 65 58 65s58 -20 58 -65c0 -28 -1 -41 5 -46s18 -5 46 -5h68
c45 0 65 5 65 -58s-20 -58 -65 -58zM492 0h-354c-45 0 -65 -5 -65 58s20 58 65 58h354c45 0 65 5 65 -58s-20 -58 -65 -58z" />
    <glyph glyph-name="aacute" unicode="&#xe1;" horiz-adv-x="630" 
d="M289 144c53 4 118 174 116 224c0 13 -4 33 -20 32c-53 -4 -120 -153 -119 -217c0 -15 3 -41 23 -39zM567 512c28 0 43 -10 41 -38c-4 -60 -22 -150 -30 -258c-1 -16 -5 -48 1 -64c4 -12 11 -11 22 -12c15 -2 25 -9 25 -25c0 -65 -146 -123 -201 -123c-89 0 -46 85 -78 85
c-26 0 -75 -90 -178 -90c-92 0 -130 81 -126 162c8 180 120 348 274 362c70 7 98 -41 127 -41c11 0 29 11 38 16c28 14 54 26 85 26zM335 643c9 8 30 26 30 40c0 5 -1 7 -3 11c-3 6 -6 10 -6 16c0 33 92 44 116 44c28 0 93 -7 93 -45c0 -76 -152 -145 -217 -145
c-21 0 -40 12 -40 35c0 19 15 31 27 44z" />
    <glyph glyph-name="Idieresis" unicode="&#xcf;" horiz-adv-x="461" 
d="M114 187l41 330c1 15 5 29 5 50c0 49 -70 17 -70 77c0 13 -11 65 195 65c165 0 218 -13 218 -66c0 -63 -77 -21 -87 -81c-3 -19 -8 -39 -12 -58l-39 -276c-3 -22 -7 -43 -7 -66c0 -81 71 -37 71 -99c0 -74 -136 -71 -188 -71c-167 0 -228 14 -228 74c0 66 88 13 101 121z
M443 759c-30 0 -77 9 -77 47c0 71 127 104 183 104c29 0 67 -15 67 -49c0 -28 -28 -52 -49 -66c-35 -22 -83 -36 -124 -36zM142 759c-29 0 -76 9 -76 47c0 71 127 104 182 104c30 0 68 -15 68 -49c0 -28 -28 -52 -49 -66c-35 -22 -83 -36 -125 -36z" />
    <glyph glyph-name="igrave" unicode="&#xec;" horiz-adv-x="370" 
d="M330 293l-12 -80c-2 -13 -8 -42 -8 -54c0 -19 11 -19 27 -19c19 0 33 -1 33 -25c0 -37 -34 -60 -63 -77c-45 -27 -99 -45 -152 -45c-38 0 -81 23 -81 65c0 19 3 37 6 56l26 170c2 13 8 42 8 54c0 16 -5 21 -21 21c-8 0 -19 -2 -26 4c-8 7 -13 21 -13 31c0 43 46 62 79 76
c47 20 123 42 174 42c31 0 45 -16 45 -46c0 -43 -15 -128 -22 -173zM307 643c12 -13 28 -25 28 -44c0 -23 -19 -35 -40 -35c-65 0 -217 69 -217 145c0 38 65 45 93 45c24 0 116 -11 116 -44c0 -6 -3 -10 -6 -16c-2 -4 -4 -6 -4 -11c0 -14 22 -32 30 -40z" />
    <glyph glyph-name="Iacute" unicode="&#xcd;" horiz-adv-x="461" 
d="M114 187l41 330c1 15 5 29 5 50c0 49 -70 17 -70 77c0 13 -11 65 195 65c165 0 218 -13 218 -66c0 -63 -77 -21 -87 -81c-3 -19 -8 -39 -12 -58l-39 -276c-3 -22 -7 -43 -7 -66c0 -81 71 -37 71 -99c0 -74 -136 -71 -188 -71c-167 0 -228 14 -228 74c0 66 88 13 101 121z
M290 820c9 8 30 26 30 40c0 5 -1 7 -3 11c-3 6 -6 10 -6 16c0 33 92 44 116 44c28 0 93 -7 93 -45c0 -76 -152 -145 -217 -145c-21 0 -40 12 -40 35c0 19 15 31 27 44z" />
    <glyph glyph-name="copyright" unicode="&#xa9;" horiz-adv-x="800" 
d="M434 -14c-201 0 -365 163 -365 365c0 201 164 364 365 364s365 -163 365 -364c0 -202 -164 -365 -365 -365zM434 55c164 0 296 132 296 296c0 163 -132 295 -296 295s-296 -132 -296 -295c0 -164 132 -296 296 -296zM544 520c9 0 17 4 25 4c23 0 53 -34 53 -96
c0 -31 -19 -57 -51 -57c-58 0 -42 97 -139 97c-44 0 -61 -40 -61 -78c0 -71 42 -143 120 -143c64 0 83 38 97 38c16 0 24 -18 24 -32c0 -27 -18 -68 -53 -75c-38 -7 -56 -32 -122 -32c-115 0 -210 91 -210 202c0 113 106 199 215 199c54 0 89 -27 102 -27z" />
    <glyph glyph-name="adieresis" unicode="&#xe4;" horiz-adv-x="630" 
d="M289 144c53 4 118 174 116 224c0 13 -4 33 -20 32c-53 -4 -120 -153 -119 -217c0 -15 3 -41 23 -39zM567 512c28 0 43 -10 41 -38c-4 -60 -22 -150 -30 -258c-1 -16 -5 -48 1 -64c4 -12 11 -11 22 -12c15 -2 25 -9 25 -25c0 -65 -146 -123 -201 -123c-89 0 -46 85 -78 85
c-26 0 -75 -90 -178 -90c-92 0 -130 81 -126 162c8 180 120 348 274 362c70 7 98 -41 127 -41c11 0 29 11 38 16c28 14 54 26 85 26zM508 582c-30 0 -77 9 -77 47c0 71 127 104 183 104c29 0 67 -15 67 -49c0 -28 -28 -52 -49 -66c-35 -22 -83 -36 -124 -36zM207 582
c-29 0 -76 9 -76 47c0 71 127 104 182 104c30 0 68 -15 68 -49c0 -28 -28 -52 -49 -66c-35 -22 -83 -36 -125 -36z" />
    <glyph glyph-name="agrave" unicode="&#xe0;" horiz-adv-x="630" 
d="M289 144c53 4 118 174 116 224c0 13 -4 33 -20 32c-53 -4 -120 -153 -119 -217c0 -15 3 -41 23 -39zM567 512c28 0 43 -10 41 -38c-4 -60 -22 -150 -30 -258c-1 -16 -5 -48 1 -64c4 -12 11 -11 22 -12c15 -2 25 -9 25 -25c0 -65 -146 -123 -201 -123c-89 0 -46 85 -78 85
c-26 0 -75 -90 -178 -90c-92 0 -130 81 -126 162c8 180 120 348 274 362c70 7 98 -41 127 -41c11 0 29 11 38 16c28 14 54 26 85 26zM457 643c12 -13 28 -25 28 -44c0 -23 -19 -35 -40 -35c-65 0 -217 69 -217 145c0 38 65 45 93 45c24 0 116 -11 116 -44
c0 -6 -3 -10 -6 -16c-2 -4 -4 -6 -4 -11c0 -14 22 -32 30 -40z" />
    <glyph glyph-name="scaron" unicode="&#x161;" horiz-adv-x="472" 
d="M477 433c0 -30 -18 -73 -53 -73c-40 0 -40 58 -78 58c-17 0 -31 -12 -31 -29c0 -65 143 -113 143 -233c0 -124 -146 -169 -247 -169c-64 0 -182 18 -182 102c0 30 19 71 53 71c42 0 35 -67 85 -67c20 0 43 11 43 33c0 53 -125 105 -125 217c0 120 137 174 240 174
c52 0 152 -17 152 -84zM390 716c19 10 67 39 89 39c24 0 45 -17 45 -42c0 -31 -35 -55 -59 -69c-29 -16 -133 -85 -159 -85c-40 0 -155 110 -155 152c0 24 18 46 43 46c47 0 83 -72 123 -72c21 0 55 22 73 31z" />
    <glyph glyph-name="Igrave" unicode="&#xcc;" horiz-adv-x="461" 
d="M114 187l41 330c1 15 5 29 5 50c0 49 -70 17 -70 77c0 13 -11 65 195 65c165 0 218 -13 218 -66c0 -63 -77 -21 -87 -81c-3 -19 -8 -39 -12 -58l-39 -276c-3 -22 -7 -43 -7 -66c0 -81 71 -37 71 -99c0 -74 -136 -71 -188 -71c-167 0 -228 14 -228 74c0 66 88 13 101 121z
M352 820c12 -13 28 -25 28 -44c0 -23 -19 -35 -40 -35c-65 0 -217 69 -217 145c0 38 65 45 93 45c24 0 116 -11 116 -44c0 -6 -3 -10 -6 -16c-2 -4 -4 -6 -4 -11c0 -14 22 -32 30 -40z" />
    <glyph glyph-name="Ocircumflex" unicode="&#xd4;" horiz-adv-x="752" 
d="M779 441c0 -249 -195 -455 -440 -455c-170 0 -296 97 -296 274c0 249 195 455 440 455c170 0 296 -97 296 -274zM376 115c107 0 134 267 134 344c0 39 -3 132 -64 127c-107 0 -134 -267 -134 -344c0 -39 3 -132 64 -127zM435 777c-18 -9 -67 -39 -88 -39
c-24 0 -46 18 -46 42c0 32 35 56 59 69c29 17 133 85 159 85c40 0 155 -109 155 -151c0 -25 -18 -47 -43 -47c-46 0 -83 72 -122 72c-22 0 -56 -21 -74 -31z" />
    <glyph glyph-name="Thorn" unicode="&#xde;" horiz-adv-x="667" 
d="M366 413l-11 -91c0 -14 0 -25 3 -32c3 -8 12 -11 25 -11c55 0 110 22 110 77c0 62 -36 84 -73 84c-32 0 -51 -6 -54 -27zM470 642c-5 -60 -85 -17 -85 -91c0 -9 0 -23 15 -23c17 0 35 4 52 4c134 2 256 -47 254 -159c-2 -127 -146 -179 -285 -179c-15 0 -30 2 -45 2
c-30 0 -33 -14 -33 -42c0 -84 66 -27 66 -93c0 -51 -57 -69 -218 -69c-177 0 -177 42 -177 67c0 57 57 28 70 73c33 114 65 360 65 429c0 59 -71 15 -71 77c0 59 58 71 221 71c167 0 175 -19 171 -67z" />
    <glyph glyph-name="egrave" unicode="&#xe8;" horiz-adv-x="565" 
d="M424 517c79 0 146 -31 146 -119c0 -121 -135 -215 -248 -215c-14 0 -39 0 -39 -21c0 -29 36 -45 61 -45c72 0 127 57 159 57c21 0 40 -22 40 -42c0 -53 -67 -86 -108 -105c-56 -25 -110 -40 -173 -40c-122 0 -228 53 -223 187c9 208 203 343 385 343zM350 418
c-41 0 -69 -93 -69 -125c0 -12 4 -28 18 -28c28 0 77 74 74 122c-1 13 -7 31 -23 31zM404 643c12 -13 28 -25 28 -44c0 -23 -19 -35 -40 -35c-65 0 -217 69 -217 145c0 38 65 45 93 45c24 0 116 -11 116 -44c0 -6 -3 -10 -6 -16c-2 -4 -4 -6 -4 -11c0 -14 22 -32 30 -40z
" />
    <glyph glyph-name="atilde" unicode="&#xe3;" horiz-adv-x="630" 
d="M289 144c53 4 118 174 116 224c0 13 -4 33 -20 32c-53 -4 -120 -153 -119 -217c0 -15 3 -41 23 -39zM567 512c28 0 43 -10 41 -38c-4 -60 -22 -150 -30 -258c-1 -16 -5 -48 1 -64c4 -12 11 -11 22 -12c15 -2 25 -9 25 -25c0 -65 -146 -123 -201 -123c-89 0 -46 85 -78 85
c-26 0 -75 -90 -178 -90c-92 0 -130 81 -126 162c8 180 120 348 274 362c70 7 98 -41 127 -41c11 0 29 11 38 16c28 14 54 26 85 26zM478 698c3 33 33 45 63 45c39 0 62 -16 62 -57c0 -61 -41 -116 -106 -116c-59 0 -160 64 -200 64c-10 0 -10 -8 -11 -17
c0 -12 1 -22 -10 -31c-10 -9 -27 -13 -41 -13c-36 0 -62 16 -62 54c0 71 44 115 115 115c76 0 154 -58 181 -58c9 0 9 7 9 14z" />
    <glyph glyph-name="Udieresis" unicode="&#xdc;" horiz-adv-x="795" 
d="M771 544l-31 -205c-26 -180 -62 -353 -337 -353c-161 0 -302 52 -302 212c0 116 41 244 40 347c-1 68 -66 22 -66 82c0 8 -23 82 232 82c158 0 162 -41 162 -69c0 -70 -78 -15 -88 -132c-29 -232 -25 -170 -33 -266c-6 -73 22 -114 93 -114c65 0 109 30 131 91
c32 86 46 235 46 327c0 77 -79 28 -79 100c0 38 27 63 158 63c168 0 161 -46 161 -61c0 -73 -75 -23 -87 -104zM671 759c-30 0 -77 9 -77 47c0 71 127 104 183 104c29 0 67 -15 67 -49c0 -28 -28 -52 -49 -66c-35 -22 -83 -36 -124 -36zM370 759c-29 0 -76 9 -76 47
c0 71 127 104 182 104c30 0 68 -15 68 -49c0 -28 -28 -52 -49 -66c-35 -22 -83 -36 -125 -36z" />
    <glyph glyph-name="ecircumflex" unicode="&#xea;" horiz-adv-x="565" 
d="M424 517c79 0 146 -31 146 -119c0 -121 -135 -215 -248 -215c-14 0 -39 0 -39 -21c0 -29 36 -45 61 -45c72 0 127 57 159 57c21 0 40 -22 40 -42c0 -53 -67 -86 -108 -105c-56 -25 -110 -40 -173 -40c-122 0 -228 53 -223 187c9 208 203 343 385 343zM350 418
c-41 0 -69 -93 -69 -125c0 -12 4 -28 18 -28c28 0 77 74 74 122c-1 13 -7 31 -23 31zM301 600c-18 -9 -67 -39 -88 -39c-24 0 -46 18 -46 42c0 32 35 56 59 69c29 17 133 85 159 85c40 0 155 -109 155 -151c0 -25 -18 -47 -43 -47c-46 0 -83 72 -122 72
c-22 0 -56 -21 -74 -31z" />
    </font>
</defs>
</svg>
